<?xml version="1.0" encoding="UTF-8" standalone="no"?>
<!-- Created with Inkscape (http://www.inkscape.org/) -->
<svg xmlns:dc="http://purl.org/dc/elements/1.1/" xmlns:cc="http://creativecommons.org/ns#" xmlns:rdf="http://www.w3.org/1999/02/22-rdf-syntax-ns#" xmlns:svg="http://www.w3.org/2000/svg" xmlns="http://www.w3.org/2000/svg" xmlns:xlink="http://www.w3.org/1999/xlink" xmlns:sodipodi="http://sodipodi.sourceforge.net/DTD/sodipodi-0.dtd" xmlns:inkscape="http://www.inkscape.org/namespaces/inkscape" width="432.18216" height="118.44038" id="svg2" sodipodi:version="0.32" inkscape:version="0.46" sodipodi:docname="dessin.svg" inkscape:output_extension="org.inkscape.output.svg.inkscape" version="1.0">
  <defs id="defs4">
    <linearGradient id="linearGradient2627">
      <stop id="stop2629" offset="0" style="stop-color: rgb(182, 182, 182); stop-opacity: 1;"/>
      <stop id="stop2631" offset="1" style="stop-color: rgb(128, 128, 128); stop-opacity: 1;"/>
    </linearGradient>
    <linearGradient id="linearGradient2615">
      <stop style="stop-color: rgb(204, 204, 204); stop-opacity: 1;" offset="0" id="stop2617"/>
      <stop style="stop-color: rgb(128, 128, 128); stop-opacity: 1;" offset="1" id="stop2619"/>
    </linearGradient>
    <inkscape:perspective sodipodi:type="inkscape:persp3d" inkscape:vp_x="0 : 526.18109 : 1" inkscape:vp_y="0 : 1000 : 0" inkscape:vp_z="744.09448 : 526.18109 : 1" inkscape:persp3d-origin="372.04724 : 350.78739 : 1" id="perspective10"/>
    <linearGradient inkscape:collect="always" xlink:href="#linearGradient2627" id="linearGradient2621" x1="236.88078" y1="170.49902" x2="184.35284" y2="126.55738" gradientUnits="userSpaceOnUse"/>
    <linearGradient inkscape:collect="always" xlink:href="#linearGradient2615" id="linearGradient2623" gradientUnits="userSpaceOnUse" x1="233.85033" y1="167.97363" x2="319.20822" y2="110.39494"/>
    <linearGradient inkscape:collect="always" xlink:href="#linearGradient2615" id="linearGradient2625" gradientUnits="userSpaceOnUse" x1="278.29703" y1="193.81665" x2="164.1498" y2="97.262955"/>
    <linearGradient inkscape:collect="always" xlink:href="#linearGradient2615" id="linearGradient2647" gradientUnits="userSpaceOnUse" x1="233.85033" y1="167.97363" x2="319.20822" y2="110.39494"/>
    <linearGradient inkscape:collect="always" xlink:href="#linearGradient2615" id="linearGradient2649" gradientUnits="userSpaceOnUse" x1="278.29703" y1="193.81665" x2="164.1498" y2="97.262955"/>
    <linearGradient inkscape:collect="always" xlink:href="#linearGradient2627" id="linearGradient2651" gradientUnits="userSpaceOnUse" x1="236.88078" y1="170.49902" x2="184.35284" y2="126.55738"/>
    <linearGradient inkscape:collect="always" xlink:href="#linearGradient2615" id="linearGradient3584" gradientUnits="userSpaceOnUse" x1="233.85033" y1="167.97363" x2="319.20822" y2="110.39494"/>
    <linearGradient inkscape:collect="always" xlink:href="#linearGradient2615" id="linearGradient3586" gradientUnits="userSpaceOnUse" x1="278.29703" y1="193.81665" x2="164.1498" y2="97.262955"/>
    <linearGradient inkscape:collect="always" xlink:href="#linearGradient2627" id="linearGradient3588" gradientUnits="userSpaceOnUse" x1="236.88078" y1="170.49902" x2="184.35284" y2="126.55738"/>
  </defs>
  <sodipodi:namedview id="base" pagecolor="#ffffff" bordercolor="#666666" borderopacity="1.0" inkscape:pageopacity="0.0" inkscape:pageshadow="2" inkscape:zoom="2.7580963" inkscape:cx="216.09108" inkscape:cy="59.220188" inkscape:document-units="px" inkscape:current-layer="layer1" showgrid="false" inkscape:window-width="1280" inkscape:window-height="976" inkscape:window-x="0" inkscape:window-y="0"/>
  <metadata id="metadata7">
    <rdf:RDF>
      <cc:Work rdf:about="">
        <dc:format>image/svg+xml</dc:format>
        <dc:type rdf:resource="http://purl.org/dc/dcmitype/StillImage"/>
      </cc:Work>
    </rdf:RDF>
  </metadata>
  <g inkscape:label="Calque 1" inkscape:groupmode="layer" id="layer1" transform="translate(-17.7022, -14.0315)">
    <g id="g2633" transform="matrix(0.345653, 0, 0, 0.345653, -5.9426, 17.6628)" inkscape:export-xdpi="90" inkscape:export-ydpi="90">
      <path id="path2500" d="M 306.14645,119.62207 C 299.20655,119.45687 292.80335,123.28095 288.29177,128.27156 C 286.82102,130.01351 285.3326,131.95657 284.92019,134.25202 C 285.05475,136.02722 287.04797,136.63827 288.0587,137.84928 C 297.14742,146.21261 303.7982,157.13234 307.37114,168.9299 C 307.91517,170.34627 308.23098,171.97787 309.22778,173.13119 C 310.41634,173.78348 311.4602,172.57082 312.41222,172.04692 C 317.97635,168.25221 322.30224,162.49759 323.88596,155.85561 C 325.81157,148.57502 325.68865,140.70972 323.42278,133.50252 C 321.6453,128.1381 318.09279,122.91799 312.6754,120.78494 C 310.59368,120.00503 308.36276,119.68678 306.14645,119.62207 z" style="overflow: visible; marker: none; opacity: 1; fill: url(#linearGradient3584) rgb(0, 0, 0); fill-opacity: 1; fill-rule: evenodd; stroke: rgb(204, 204, 204); stroke-width: 1.68623; stroke-linecap: butt; stroke-linejoin: miter; stroke-miterlimit: 4; stroke-dasharray: none; stroke-dashoffset: 0pt; stroke-opacity: 1; visibility: visible; display: inline;"/>
      <path id="path2437" d="M 308.92532,115.58421 C 301.70077,115.31643 295.0219,118.71427 289.24565,122.69736 C 285.03938,125.59096 281.22415,129.76689 280.41567,134.98706 C 280.50848,136.22823 282.21513,136.82881 283.06686,135.97827 C 284.42133,135.41806 286.36521,134.99686 286.6249,133.2654 C 288.264,129.01798 292.10398,126.21212 295.73929,123.76919 C 301.25282,120.34263 308.81434,119.62564 314.4585,123.16395 C 319.73372,126.56521 322.33775,132.74365 323.37654,138.69448 C 325.18256,148.49738 323.20886,159.36352 316.4797,166.91005 C 313.50437,170.25911 309.46873,172.5655 305.18454,173.84679 C 303.93273,174.57662 303.96065,176.93786 305.54004,177.23341 C 307.84882,177.45103 309.80951,176.01972 311.92655,175.38616 C 318.51279,172.63522 324.04162,167.43626 326.83488,160.82947 C 331.60818,150.35824 331.34957,137.72524 326.41744,127.29762 C 323.61919,121.72934 318.48345,117.05118 312.20607,115.96603 C 311.12924,115.73975 310.02599,115.61568 308.92532,115.58421 z" style="overflow: visible; marker: none; fill: rgb(0, 0, 0); fill-opacity: 1; fill-rule: evenodd; stroke: rgb(0, 0, 0); stroke-width: 0.590181; stroke-linecap: butt; stroke-linejoin: miter; stroke-miterlimit: 4; stroke-dasharray: none; stroke-dashoffset: 0pt; stroke-opacity: 1; visibility: visible; display: inline;"/>
      <path id="path2502" d="M 313.93502,225.08912 C 295.61361,229.38658 277.23772,233.51424 258.96554,237.99943 C 257.92486,238.56853 258.5317,240.14132 259.52103,240.39668 C 267.84901,244.74421 276.76582,247.83049 285.71091,250.62799 C 296.4308,253.88815 307.39111,256.43409 318.47414,258.01382 C 328.54854,259.16569 338.71328,259.51302 348.83159,259.11306 C 357.48489,258.47566 366.20395,256.9682 374.20539,253.59994 C 378.90056,251.5427 383.48017,248.26603 385.42189,243.34937 C 385.75037,242.6229 385.67318,241.57119 384.76928,241.33308 C 383.42506,241.06841 382.04851,240.9622 380.68966,240.73709 C 362.70848,238.41177 344.50205,236.39745 327.27974,230.36695 C 322.88685,228.87262 318.60436,227.01525 314.35778,225.15177 C 314.21913,225.11704 314.07919,225.07738 313.93502,225.08912 z" style="overflow: visible; marker: none; fill: rgb(204, 204, 204); fill-opacity: 1; fill-rule: evenodd; stroke: rgb(204, 204, 204); stroke-width: 1.68623; stroke-linecap: butt; stroke-linejoin: miter; stroke-miterlimit: 4; stroke-dasharray: none; stroke-dashoffset: 0pt; stroke-opacity: 1; visibility: visible; display: inline;"/>
      <path id="path2481" d="M 326.79376,227.46912 C 304.55731,232.71501 282.25947,237.88337 259.99964,243.10133 C 231.39164,249.78745 202.78433,256.47646 174.17589,263.16075 C 173.84472,264.15186 174.94519,265.25234 175.90922,264.74272 C 180.15821,263.62088 184.51103,262.7532 188.80134,261.68811 C 235.20312,250.84188 281.60493,239.99584 328.00669,229.14949 C 328.11754,228.38296 327.68776,227.40856 326.79376,227.46912 z" style="fill: none; fill-rule: evenodd; stroke: rgb(0, 0, 0); stroke-width: 0.158229px; stroke-linecap: butt; stroke-linejoin: miter; stroke-opacity: 1;"/>
      <path id="path2415" d="M 125.31707,-3.0946226 C 123.98874,-2.4445246 122.00364,-1.9342246 121.7767,-0.19706065 C 123.15104,10.63689 125.75862,21.288946 127.55735,32.06253 C 129.13208,40.84205 129.24705,49.801489 129.68813,58.693646 C 129.79543,66.79708 127.6978,74.795896 124.08202,82.001006 C 119.44086,91.518756 113.31544,100.26567 107.60591,109.16709 C 101.71375,118.20515 95.586631,127.09187 89.021425,135.64072 C 81.451266,145.79941 73.79783,156.38312 70.28813,168.7367 C 68.478471,175.34139 67.857065,182.64691 70.367244,189.16797 C 72.667579,195.0526 77.548328,199.66535 83.343424,202.0558 C 92.048845,205.86408 101.81463,206.34108 111.19422,205.69813 C 124.21547,204.70056 136.70085,200.52994 148.99642,196.38184 C 158.12784,193.29051 166.97333,189.4075 175.38985,184.72157 C 191.08596,176.14903 205.81519,165.96465 221.18987,156.8235 C 224.49223,154.77895 227.90253,152.84213 231.06817,150.6294 C 231.59628,149.67422 232.92811,148.77007 232.32905,147.52417 C 231.92408,146.2331 230.14673,145.67166 229.10879,146.57978 C 213.40624,154.93982 198.76345,165.14855 183.51059,174.2648 C 182.36251,175.03996 181.1164,175.57669 179.86638,176.11905 C 178.96548,176.51097 178.65405,177.56956 177.69074,177.84967 C 166.8709,183.98494 155.18018,188.42311 143.34359,192.21063 C 130.27358,196.601 116.55662,200.01725 102.65615,199.06115 C 95.821976,198.61079 88.768195,197.20717 83.186707,193.01758 C 78.704438,189.611 75.521531,184.16493 75.707459,178.40347 C 75.546777,168.96008 79.654586,160.10024 84.374892,152.17205 C 92.079932,139.41342 102.03473,128.2067 109.87989,115.53727 C 117.47055,103.89173 125.71741,92.488436 131.34162,79.715796 C 134.44019,72.394997 135.82841,64.363946 135.28348,56.414317 C 134.92106,49.727253 134.41831,43.029046 133.60429,36.388358 C 132.70144,29.211442 130.9543,22.198396 129.21345,15.19067 C 127.93124,9.7352524 126.6575,4.2641094 125.94998,-1.2997166 C 125.92311,-1.8512936 126.22641,-3.1193416 125.31707,-3.0946226 z" style="overflow: visible; marker: none; fill: rgb(0, 0, 0); fill-opacity: 1; fill-rule: evenodd; stroke: rgb(0, 0, 0); stroke-width: 0.590181; stroke-linecap: butt; stroke-linejoin: miter; stroke-miterlimit: 4; stroke-dasharray: none; stroke-dashoffset: 0pt; stroke-opacity: 1; visibility: visible; display: inline;"/>
      <path sodipodi:nodetypes="ccccccccccccccccccccc" id="path2489" d="M 233.89677,121.36531 C 226.2501,120.9502 218.52756,121.03685 211.0161,122.50014 C 194.43584,125.22662 178.41625,131.75461 165.23666,142.17434 C 151.28495,152.99856 139.93461,167.1861 132.44115,183.19739 C 126.94594,195.54315 124.53174,209.43134 126.3796,222.92257 C 127.93789,233.36399 133.24417,243.24509 141.28678,250.14649 C 147.96315,256.0145 156.39079,259.8573 165.15755,261.10118 C 169.12006,261.79941 173.32566,262.22661 177.14713,263.03048 C 176.66771,263.75503 177.1585,264.84103 178.08785,264.77507 C 192.89996,267.1661 207.96209,266.60602 222.85536,265.73981 C 246.67856,264.12531 270.41662,260.72051 293.57481,254.98019 C 303.35168,252.47998 313.11661,249.52526 322.03892,244.78414 C 325.18911,242.99699 328.36667,240.81408 330.18335,237.5971 C 331.28962,235.41634 331.12266,232.62659 329.61334,230.66811 C 328.67889,229.13742 327.14615,228.1165 325.47005,227.54576 C 323.75816,226.67465 321.74075,226.2216 320.30072,224.91177 C 315.48678,218.73914 313.78949,210.9392 311.71533,203.55902 C 307.97611,188.94745 305.7744,173.78705 299.50781,159.93479 C 292.78764,145.65633 280.62921,134.0261 266.06943,127.97678 C 257.00252,124.06052 247.20181,121.97163 237.35795,121.55454 C 236.20478,121.48056 235.05067,121.42437 233.89677,121.36531 z" style="overflow: visible; marker: none; opacity: 1; fill: url(#linearGradient3586) rgb(0, 0, 0); fill-opacity: 1; fill-rule: evenodd; stroke: rgb(204, 204, 204); stroke-width: 1.68623; stroke-linecap: butt; stroke-linejoin: miter; stroke-miterlimit: 4; stroke-dasharray: none; stroke-dashoffset: 0pt; stroke-opacity: 1; visibility: visible; display: inline;"/>
      <path id="path2421" d="M 295.91301,206.75099 C 294.74343,207.53753 292.73506,207.93646 292.67248,209.65944 C 292.82649,211.34307 294.72065,211.96344 295.51594,213.28854 C 298.90267,217.17398 302.78106,220.74013 307.41817,223.06342 C 318.41512,229.33267 330.53826,233.39029 342.80396,236.30069 C 356.48078,239.43089 370.44155,240.98999 384.37067,242.44038 C 382.20629,247.85828 377.11656,251.50694 371.68756,253.19304 C 358.0397,258.11451 343.22586,258.69885 328.8131,257.75445 C 310.69182,256.36208 292.85431,251.97303 275.73284,245.96937 C 262.52883,241.1724 249.96802,234.53665 238.91639,225.81749 C 235.50637,223.25991 232.08342,220.6559 228.72237,218.06942 C 227.29083,217.13084 225.48927,218.83444 225.88727,220.35622 C 226.21074,221.46496 227.37216,222.05362 227.9963,222.99124 C 230.75844,226.20158 233.77509,229.12835 237.16111,231.67893 C 247.11247,239.4698 258.57281,245.07946 270.29547,249.64327 C 285.54343,255.43153 301.44388,259.40068 317.567,261.7056 C 333.32922,263.76689 349.5519,263.86231 364.9977,260.01676 C 372.12541,258.11192 379.16655,255.28712 384.93149,250.61673 C 387.67662,248.18472 389.56213,244.92615 390.99911,241.59328 C 392.36672,240.45686 391.6184,237.69047 389.73345,237.66685 C 384.96813,236.72147 380.06036,236.88916 375.26467,236.10925 C 356.6992,234.09206 337.96448,230.9799 320.76954,223.32681 C 312.98825,220.01326 305.38808,215.77312 299.59908,209.50243 C 298.48983,208.47255 297.33375,207.50633 296.08602,206.65148 L 295.94932,206.73012 L 295.91301,206.75099 z" style="overflow: visible; marker: none; fill: rgb(0, 0, 0); fill-opacity: 1; fill-rule: evenodd; stroke: rgb(0, 0, 0); stroke-width: 0.590181; stroke-linecap: butt; stroke-linejoin: miter; stroke-miterlimit: 4; stroke-dasharray: none; stroke-dashoffset: 0pt; stroke-opacity: 1; visibility: visible; display: inline;"/>
      <path id="path2419" d="M 236.75061,117.31172 C 214.98718,116.08697 193.04162,121.48652 174.28896,132.38575 C 161.24031,139.82918 149.77369,149.97195 140.75314,161.97891 C 131.45662,174.02695 124.2149,188.04941 121.92642,203.26285 C 119.91277,216.10629 121.60043,229.86171 128.38303,241.15548 C 135.00495,252.509 146.32161,261.21046 159.25722,263.8788 C 164.75526,265.13876 170.37797,265.7912 175.98259,266.31943 C 177.4805,265.90874 178.76677,264.88503 179.95486,263.95595 C 180.61643,262.72722 179.19164,261.43074 177.97341,261.59412 C 169.54547,260.03006 160.64114,259.9722 152.79571,256.14453 C 140.06107,250.34554 130.28608,238.17158 127.92764,224.31917 C 125.47084,210.34494 128.16899,195.8569 133.96061,183.09697 C 140.02501,169.88445 149.18734,158.21083 159.7671,148.41637 C 172.03899,137.25988 187.17126,129.12739 203.41012,125.38749 C 221.56513,121.04036 240.97559,121.2993 258.97037,126.69436 C 272.30177,130.92633 284.58494,139.22329 292.63383,150.80207 C 298.74428,159.40367 302.45653,169.46248 304.8156,179.6937 C 308.12321,193.21611 310.00486,207.23939 315.56274,220.11826 C 317.60417,224.35965 320.5241,228.45444 324.77734,230.66212 C 326.61239,231.26897 328.52371,230.24028 329.89929,229.11395 C 331.13374,227.86761 330.77411,225.45988 329.07735,224.76335 C 323.69505,221.37313 321.21205,215.19686 319.31762,209.39671 C 313.62658,192.89681 312.38234,175.06266 305.19158,159.03809 C 297.4651,141.66763 281.95062,128.01994 263.91667,122.18422 C 255.15602,119.21682 245.96003,117.7344 236.75061,117.31172 z" style="overflow: visible; marker: none; fill: rgb(0, 0, 0); fill-opacity: 1; fill-rule: evenodd; stroke: rgb(0, 0, 0); stroke-width: 0.590181; stroke-linecap: butt; stroke-linejoin: miter; stroke-miterlimit: 4; stroke-dasharray: none; stroke-dashoffset: 0pt; stroke-opacity: 1; visibility: visible; display: inline;"/>
      <path id="path2495" d="M 211.64529,110.43742 C 203.70776,110.0362 196.29185,114.10677 190.79149,119.49457 C 182.18602,127.8611 177.88339,140.19883 178.49736,152.18687 C 179.21195,163.53489 184.31112,174.65609 192.51275,182.52378 C 197.62285,187.32853 204.46922,190.57712 211.57402,190.33247 C 215.52181,190.25241 219.46254,189.63594 223.26358,188.61133 C 226.67543,187.1101 228.24635,183.45684 230.24979,180.54758 C 234.76061,173.36615 239.15598,166.11251 243.63456,158.91088 C 242.65502,151.137 239.92563,143.72954 237.39352,136.34299 C 234.37848,128.3013 230.25269,120.22779 223.35786,114.84392 C 219.97049,112.29739 215.89691,110.61548 211.64529,110.43742 z" style="overflow: visible; marker: none; fill: url(#linearGradient3588) rgb(0, 0, 0); fill-opacity: 1; fill-rule: evenodd; stroke: none; stroke-width: 1.68623; stroke-linecap: butt; stroke-linejoin: miter; stroke-miterlimit: 4; stroke-dasharray: none; stroke-dashoffset: 0pt; stroke-opacity: 1; visibility: visible; display: inline;"/>
      <path sodipodi:nodetypes="ccccccccccccccccccccc" id="path2433" d="M 213.55428,106.89687 C 205.60846,106.4912 198.15732,110.03828 191.82726,114.48014 C 180.72242,122.45898 174.31933,136.187 174.2977,149.85428 C 174.15329,164.81108 181.16583,179.95318 193.40636,188.78207 C 199.77344,193.34866 208.0005,194.95202 215.64571,193.54921 C 219.7643,192.86182 223.87617,191.66736 227.43513,189.48234 C 228.326,188.6404 228.12243,186.71431 226.75331,186.50876 C 223.73974,186.57944 221.03209,188.01062 218.07984,188.429 C 211.20539,189.83483 203.5738,189.0818 197.70933,184.96591 C 190.40712,180.07448 185.17658,172.53766 182.2464,164.31605 C 177.64009,151.0651 179.53785,135.43158 188.22274,124.33768 C 192.4881,118.8032 198.26865,114.23235 205.12501,112.42393 C 210.71842,110.99127 217.11033,111.76224 221.81935,115.34938 C 228.76022,120.28166 232.79624,128.15533 235.80081,135.92347 C 238.17981,142.21244 240.18115,148.63619 241.7516,155.16373 C 242.09876,157.2519 242.27314,159.39038 242.76701,161.46333 C 244.25049,163.15755 247.71497,164.28075 246.91669,155.96015 C 247.15572,154.7112 246.45395,153.50577 246.37556,152.25588 C 245.24839,146.0413 243.68551,139.90735 241.30035,134.04167 C 238.11043,125.86979 233.86886,117.72373 226.93635,112.11731 C 223.11724,109.11272 218.45311,107.05334 213.55428,106.89687 z" style="overflow: visible; marker: none; fill: rgb(0, 0, 0); fill-opacity: 1; fill-rule: evenodd; stroke: rgb(0, 0, 0); stroke-width: 0.590181; stroke-linecap: butt; stroke-linejoin: miter; stroke-miterlimit: 4; stroke-dasharray: none; stroke-dashoffset: 0pt; stroke-opacity: 1; visibility: visible; display: inline;"/>
      <path id="path2427" d="M 261.22171,167.26295 C 259.9268,168.56857 257.82889,169.09562 257.15079,170.94753 C 257.19105,173.20093 258.08082,175.37216 257.99867,177.63189 C 258.45001,183.98973 257.63098,190.40826 258.40685,196.74909 C 258.65548,198.07407 259.30823,199.87974 260.89581,199.94682 C 262.56024,199.86331 263.27737,198.0701 263.50437,196.66105 C 264.81318,191.45713 263.72046,186.02646 264.03825,180.73805 C 263.95001,176.10658 263.34656,171.35878 261.55202,167.0199 C 261.44192,167.10092 261.33182,167.18192 261.22171,167.26295 z" style="overflow: visible; marker: none; fill: rgb(0, 0, 0); fill-opacity: 1; fill-rule: evenodd; stroke: rgb(0, 0, 0); stroke-width: 0.590181; stroke-linecap: butt; stroke-linejoin: miter; stroke-miterlimit: 4; stroke-dasharray: none; stroke-dashoffset: 0pt; stroke-opacity: 1; visibility: visible; display: inline;"/>
      <path id="path2429" d="M 278.7246,168.4079 C 277.25329,169.16845 276.08054,170.38276 274.69318,171.28004 C 276.7886,178.53481 276.50135,186.15296 277.32808,193.57527 C 277.83987,194.95638 277.85006,196.79973 279.13778,197.74912 C 280.28542,198.44371 281.9949,197.75904 282.15348,196.38752 C 283.62521,192.57934 283.76666,188.38281 283.14419,184.36315 C 282.63333,179.22572 282.05516,174.01601 280.47719,169.08434 C 280.08426,168.55307 279.3761,168.25408 278.7246,168.4079 z" style="overflow: visible; marker: none; fill: rgb(0, 0, 0); fill-opacity: 1; fill-rule: evenodd; stroke: rgb(0, 0, 0); stroke-width: 0.590181; stroke-linecap: butt; stroke-linejoin: miter; stroke-miterlimit: 4; stroke-dasharray: none; stroke-dashoffset: 0pt; stroke-opacity: 1; visibility: visible; display: inline;"/>
    </g>
    <rect style="overflow: visible; marker: none; opacity: 1; fill: rgb(77, 77, 77); fill-opacity: 1; fill-rule: evenodd; stroke: none; stroke-width: 1.68623; stroke-linecap: butt; stroke-linejoin: miter; stroke-miterlimit: 4; stroke-dasharray: none; stroke-dashoffset: 0pt; stroke-opacity: 1; visibility: visible; display: inline;" id="rect2711" width="145.96704" height="118.44038" x="303.91736" y="14.031511" inkscape:export-filename="/home/yekcim/Desktop/path3499.png" inkscape:export-xdpi="90" inkscape:export-ydpi="90"/>
    <g id="g3540" transform="translate(-3.03046, -6.06092)">
      <path id="path3502" d="M 245.4537,68.20799 C 243.0549,68.15089 240.84162,69.47269 239.28218,71.19771 C 238.77381,71.79982 238.25933,72.47144 238.11678,73.26487 C 238.16329,73.87847 238.85226,74.08968 239.20162,74.50827 C 242.34316,77.39908 244.64202,81.17351 245.87701,85.25137 C 246.06506,85.74094 246.17422,86.30491 246.51877,86.70356 C 246.9296,86.92903 247.29041,86.50987 247.61948,86.32878 C 249.54273,85.01713 251.03799,83.02803 251.58541,80.73221 C 252.251,78.21565 252.20851,75.49699 251.42531,73.0058 C 250.81092,71.15158 249.58298,69.34723 247.71045,68.60994 C 246.99089,68.34036 246.21977,68.23035 245.4537,68.20799 z" style="overflow: visible; marker: none; fill: rgb(255, 255, 255); fill-opacity: 1; fill-rule: evenodd; stroke: rgb(204, 204, 204); stroke-width: 0.58285; stroke-linecap: butt; stroke-linejoin: miter; stroke-miterlimit: 4; stroke-dasharray: none; stroke-dashoffset: 0pt; stroke-opacity: 1; visibility: visible; display: inline;"/>
      <path id="path3504" d="M 246.41422,66.81229 C 243.91704,66.71973 241.60847,67.8942 239.61189,69.27097 C 238.15798,70.27115 236.83924,71.71457 236.55978,73.51894 C 236.59186,73.94795 237.18177,74.15554 237.47617,73.86155 C 237.94435,73.66791 238.61626,73.52233 238.70602,72.92384 C 239.27258,71.45571 240.59988,70.48586 241.85643,69.64145 C 243.7622,68.45705 246.37586,68.20922 248.32678,69.43225 C 250.15017,70.6079 251.05026,72.7435 251.40932,74.80042 C 252.03358,78.18882 251.35137,81.94473 249.02541,84.55321 C 247.99698,85.71082 246.60205,86.50803 245.12121,86.95091 C 244.68852,87.20318 244.69817,88.01935 245.24409,88.1215 C 246.04213,88.19672 246.71984,87.70199 247.4516,87.483 C 249.72816,86.53213 251.63921,84.73509 252.60471,82.45144 C 254.25461,78.83203 254.16522,74.4654 252.46042,70.86106 C 251.4932,68.93637 249.71801,67.31935 247.54822,66.94427 C 247.17601,66.86605 246.79467,66.82317 246.41422,66.81229 z" style="overflow: visible; marker: none; fill: rgb(0, 0, 0); fill-opacity: 1; fill-rule: evenodd; stroke: rgb(0, 0, 0); stroke-width: 0.203998; stroke-linecap: butt; stroke-linejoin: miter; stroke-miterlimit: 4; stroke-dasharray: none; stroke-dashoffset: 0pt; stroke-opacity: 1; visibility: visible; display: inline;"/>
      <path id="path3506" d="M 248.14584,104.66296 C 241.81299,106.14839 235.46132,107.57512 229.14549,109.12544 C 228.78577,109.32215 228.99553,109.86579 229.33749,109.95406 C 232.21608,111.45679 235.2982,112.52357 238.3901,113.49054 C 242.09546,114.61742 245.88392,115.49743 249.7148,116.04347 C 253.19704,116.44162 256.71051,116.56167 260.20793,116.42342 C 263.19897,116.20311 266.21273,115.68205 268.97845,114.5178 C 270.60135,113.80671 272.18431,112.67412 272.85547,110.97466 C 272.96901,110.72356 272.94233,110.36003 272.62989,110.27773 C 272.16526,110.18624 271.68945,110.14953 271.21976,110.07172 C 265.00452,109.26797 258.71141,108.57171 252.75848,106.48725 C 251.24006,105.97074 249.75981,105.32873 248.29197,104.68461 C 248.24404,104.67261 248.19567,104.6589 248.14584,104.66296 z" style="overflow: visible; marker: none; fill: rgb(255, 255, 255); fill-opacity: 1; fill-rule: evenodd; stroke: rgb(204, 204, 204); stroke-width: 0.58285; stroke-linecap: butt; stroke-linejoin: miter; stroke-miterlimit: 4; stroke-dasharray: none; stroke-dashoffset: 0pt; stroke-opacity: 1; visibility: visible; display: inline;"/>
      <path id="path3508" d="M 252.5905,105.48561 C 244.90441,107.29887 237.1971,109.08533 229.50293,110.88893 C 219.6145,113.2 209.7263,115.51208 199.83772,117.82252 C 199.72325,118.1651 200.10363,118.54548 200.43685,118.36933 C 201.90552,117.98156 203.41009,117.68165 204.89304,117.3135 C 220.93194,113.56447 236.97085,109.81551 253.00975,106.06644 C 253.04806,105.80148 252.89951,105.46468 252.5905,105.48561 z" style="fill: none; fill-rule: evenodd; stroke: rgb(0, 0, 0); stroke-width: 0.0546921px; stroke-linecap: butt; stroke-linejoin: miter; stroke-opacity: 1;"/>
      <path id="path3510" d="M 182.94953,25.79063 C 182.49039,26.01534 181.80424,26.19173 181.7258,26.79218 C 182.20084,30.53697 183.10216,34.21888 183.72389,37.9428 C 184.2682,40.97746 184.30794,44.07432 184.4604,47.14791 C 184.49749,49.94889 183.77244,52.7137 182.52264,55.20417 C 180.91841,58.494 178.80114,61.5174 176.82762,64.5942 C 174.79098,67.71823 172.67313,70.78994 170.40385,73.74488 C 167.7872,77.25626 165.14177,80.91454 163.92863,85.18459 C 163.30312,87.46752 163.08833,89.99269 163.95598,92.24672 C 164.75109,94.28075 166.43814,95.87516 168.44123,96.70143 C 171.45028,98.01777 174.82585,98.18265 178.06793,97.96041 C 182.56876,97.6156 186.88437,96.17401 191.13436,94.74021 C 194.29066,93.67168 197.34813,92.32951 200.25733,90.70981 C 205.68273,87.74668 210.77393,84.22643 216.08823,81.06676 C 217.2297,80.36006 218.40847,79.69059 219.50269,78.92575 C 219.68523,78.59559 220.14558,78.28307 219.93851,77.85242 C 219.79853,77.40616 219.18419,77.2121 218.82542,77.52599 C 213.39779,80.41566 208.33647,83.94434 203.06428,87.09539 C 202.66744,87.36333 202.23672,87.54885 201.80465,87.73632 C 201.49325,87.87179 201.3856,88.23769 201.05263,88.33451 C 197.31273,90.45519 193.2718,91.98925 189.18045,93.29842 C 184.66276,94.81596 179.92146,95.9968 175.11673,95.66632 C 172.75447,95.51065 170.31632,95.02549 168.38706,93.57734 C 166.83775,92.39985 165.73757,90.5174 165.80184,88.52594 C 165.7463,85.2618 167.16617,82.19938 168.79776,79.45898 C 171.46103,75.04892 174.90193,71.17529 177.61363,66.79607 C 180.23736,62.77075 183.08791,58.82917 185.03194,54.41428 C 186.10296,51.88382 186.58281,49.10787 186.39445,46.36006 C 186.26918,44.04866 186.0954,41.7334 185.81403,39.43803 C 185.50196,36.95731 184.89806,34.53323 184.29633,32.11099 C 183.85313,30.22531 183.41286,28.3342 183.1683,26.41104 C 183.15901,26.22039 183.26385,25.78209 182.94953,25.79063 z" style="overflow: visible; marker: none; fill: rgb(0, 0, 0); fill-opacity: 1; fill-rule: evenodd; stroke: rgb(0, 0, 0); stroke-width: 0.203998; stroke-linecap: butt; stroke-linejoin: miter; stroke-miterlimit: 4; stroke-dasharray: none; stroke-dashoffset: 0pt; stroke-opacity: 1; visibility: visible; display: inline;"/>
      <path sodipodi:nodetypes="ccccccccccccccccccccc" id="path3512" d="M 220.4804,68.81054 C 217.83731,68.66706 215.16799,68.69701 212.57163,69.2028 C 206.84062,70.14522 201.30341,72.40163 196.74785,76.00324 C 191.9254,79.74466 188.00213,84.64862 185.41199,90.18297 C 183.51256,94.45031 182.67808,99.2508 183.3168,103.91408 C 183.85543,107.52319 185.68956,110.93862 188.46951,113.32411 C 190.77721,115.3524 193.69025,116.68067 196.7205,117.11062 C 198.09016,117.35197 199.54383,117.49963 200.86473,117.77749 C 200.69902,118.02793 200.86866,118.40331 201.1899,118.38051 C 206.30974,119.20698 211.51601,119.01339 216.66391,118.71398 C 224.89846,118.15592 233.10358,116.97904 241.10828,114.99489 C 244.48768,114.13068 247.86295,113.10938 250.94697,111.47059 C 252.03584,110.85286 253.13418,110.09833 253.76212,108.98638 C 254.1445,108.23259 254.08679,107.2683 253.56509,106.59135 C 253.2421,106.06226 252.7123,105.70938 252.13295,105.5121 C 251.54123,105.211 250.84391,105.0544 250.34616,104.60166 C 248.68221,102.46807 248.09553,99.772 247.3786,97.22102 C 246.08612,92.17049 245.3251,86.93026 243.15903,82.14219 C 240.83619,77.2068 236.63359,73.18678 231.60097,71.09582 C 228.46696,69.74215 225.07932,69.02012 221.67677,68.87595 C 221.27817,68.85038 220.87925,68.83096 220.4804,68.81054 z" style="overflow: visible; marker: none; fill: rgb(255, 255, 255); fill-opacity: 1; fill-rule: evenodd; stroke: none; stroke-width: 1.68623; stroke-linecap: butt; stroke-linejoin: miter; stroke-miterlimit: 4; stroke-dasharray: none; stroke-dashoffset: 0pt; stroke-opacity: 1; visibility: visible; display: inline;"/>
      <path id="path3514" d="M 241.91648,98.32433 C 241.51221,98.5962 240.81801,98.73409 240.79638,99.32965 C 240.84962,99.9116 241.50434,100.12603 241.77923,100.58406 C 242.94986,101.92707 244.29044,103.15972 245.89327,103.96277 C 249.6944,106.12975 253.88479,107.53228 258.12446,108.53827 C 262.85189,109.62023 267.67747,110.15914 272.49211,110.66047 C 271.74399,112.53318 269.98471,113.79435 268.10816,114.37715 C 263.39074,116.07827 258.2703,116.28025 253.28849,115.95382 C 247.02482,115.47254 240.85923,113.95545 234.94115,111.88027 C 230.37715,110.22219 226.03547,107.92852 222.21545,104.91472 C 221.03676,104.03069 219.85361,103.1306 218.69185,102.23658 C 218.19704,101.91216 217.57432,102.50101 217.71189,103.02702 C 217.8237,103.41026 218.22515,103.61373 218.44089,103.93782 C 219.39563,105.04748 220.43834,106.05913 221.60873,106.94074 C 225.04844,109.63368 229.00974,111.57267 233.06171,113.15017 C 238.33221,115.15089 243.82824,116.52284 249.40124,117.31954 C 254.84949,118.03203 260.45691,118.06502 265.79579,116.73579 C 268.2595,116.07738 270.69329,115.10098 272.68596,113.48665 C 273.63482,112.64601 274.28655,111.51968 274.78325,110.36767 C 275.25597,109.97486 274.99731,109.01865 274.34577,109.01048 C 272.69862,108.68371 271.00224,108.74167 269.3446,108.4721 C 262.92739,107.77485 256.45169,106.69912 250.50821,104.05381 C 247.81858,102.90847 245.19156,101.44286 243.19058,99.27538 C 242.80717,98.9194 242.40756,98.58542 241.97628,98.28994 L 241.92903,98.31712 L 241.91648,98.32433 z" style="overflow: visible; marker: none; fill: rgb(0, 0, 0); fill-opacity: 1; fill-rule: evenodd; stroke: rgb(0, 0, 0); stroke-width: 0.203998; stroke-linecap: butt; stroke-linejoin: miter; stroke-miterlimit: 4; stroke-dasharray: none; stroke-dashoffset: 0pt; stroke-opacity: 1; visibility: visible; display: inline;"/>
      <path id="path3516" d="M 221.46684,67.40941 C 213.94425,66.98607 206.35871,68.85244 199.8768,72.61979 C 195.3665,75.19263 191.40303,78.69851 188.28505,82.84874 C 185.07169,87.01318 182.56857,91.86008 181.77755,97.11865 C 181.08152,101.55802 181.66487,106.31262 184.00929,110.21634 C 186.29818,114.14071 190.20981,117.1484 194.68104,118.07072 C 196.58145,118.50622 198.52496,118.73174 200.46221,118.91433 C 200.97996,118.77237 201.42457,118.41852 201.83523,118.09738 C 202.06391,117.67267 201.57142,117.22454 201.15034,117.28101 C 198.2372,116.74039 195.15939,116.72039 192.4476,115.39734 C 188.04584,113.39291 184.66709,109.18495 183.85188,104.39682 C 183.00268,99.56659 183.93531,94.55876 185.9372,90.14826 C 188.03337,85.58131 191.20036,81.5463 194.85728,78.16082 C 199.09909,74.30454 204.3296,71.49353 209.94261,70.20082 C 216.21794,68.69822 222.92721,68.78773 229.14716,70.65254 C 233.75519,72.11534 238.0009,74.9832 240.78302,78.98544 C 242.89512,81.9586 244.17827,85.43546 244.99369,88.97191 C 246.13697,93.64597 246.78737,98.49315 248.70846,102.94477 C 249.41409,104.41081 250.42337,105.82619 251.89351,106.58928 C 252.5278,106.79904 253.18846,106.44347 253.66393,106.05415 C 254.09062,105.62335 253.96631,104.79111 253.37982,104.55035 C 251.51942,103.37852 250.66116,101.24367 250.00635,99.23883 C 248.03922,93.5356 247.60915,87.37118 245.12364,81.83224 C 242.45296,75.82809 237.09034,71.11073 230.85686,69.0936 C 227.82872,68.06791 224.6501,67.55551 221.46684,67.40941 z" style="overflow: visible; marker: none; fill: rgb(0, 0, 0); fill-opacity: 1; fill-rule: evenodd; stroke: rgb(0, 0, 0); stroke-width: 0.203998; stroke-linecap: butt; stroke-linejoin: miter; stroke-miterlimit: 4; stroke-dasharray: none; stroke-dashoffset: 0pt; stroke-opacity: 1; visibility: visible; display: inline;"/>
      <path id="path3518" d="M 212.78912,65.03329 C 210.04549,64.89461 207.48216,66.30161 205.58094,68.16392 C 202.60644,71.05583 201.11922,75.3204 201.33144,79.4641 C 201.57844,83.38657 203.34099,87.23065 206.1759,89.95013 C 207.94222,91.61091 210.30869,92.73379 212.76448,92.64923 C 214.12905,92.62156 215.49117,92.40847 216.80501,92.05431 C 217.98432,91.53541 218.52732,90.27265 219.21981,89.26705 C 220.77899,86.78477 222.29826,84.27753 223.84629,81.78827 C 223.50771,79.10121 222.56429,76.5408 221.68906,73.98762 C 220.6469,71.20799 219.22081,68.41736 216.8376,66.55641 C 215.66674,65.67619 214.2587,65.09484 212.78912,65.03329 z" style="overflow: visible; marker: none; fill: rgb(255, 255, 255); fill-opacity: 1; fill-rule: evenodd; stroke: none; stroke-width: 1.68623; stroke-linecap: butt; stroke-linejoin: miter; stroke-miterlimit: 4; stroke-dasharray: none; stroke-dashoffset: 0pt; stroke-opacity: 1; visibility: visible; display: inline;"/>
      <path sodipodi:nodetypes="ccccccccccccccccccccc" id="path3520" d="M 213.44896,63.80949 C 210.70247,63.66927 208.12696,64.89532 205.93896,66.43067 C 202.10054,69.18857 199.8873,73.9337 199.87982,78.65783 C 199.8299,83.82769 202.25381,89.0616 206.48478,92.11333 C 208.68558,93.69178 211.52928,94.24599 214.17187,93.7611 C 215.59547,93.5235 217.01675,93.11064 218.24692,92.35538 C 218.55485,92.06436 218.48448,91.3986 218.01124,91.32755 C 216.9696,91.35198 216.03369,91.84667 215.01324,91.99129 C 212.63706,92.47722 209.99918,92.21693 207.97211,90.79426 C 205.44809,89.10353 203.64013,86.4984 202.62731,83.65658 C 201.03513,79.07636 201.69109,73.67259 204.69305,69.83795 C 206.16738,67.92494 208.16544,66.34502 210.53536,65.71993 C 212.46874,65.22473 214.67812,65.49122 216.30581,66.73112 C 218.70494,68.43598 220.1,71.15753 221.13854,73.84261 C 221.96084,76.01641 222.65261,78.2368 223.19544,80.49306 C 223.31544,81.21484 223.37571,81.95401 223.54642,82.67053 C 224.05919,83.25614 225.2567,83.64438 224.98077,80.76834 C 225.06339,80.33664 224.82082,79.91998 224.79373,79.48795 C 224.40412,77.33987 223.8639,75.21965 223.03947,73.19216 C 221.93686,70.36753 220.47075,67.55182 218.07451,65.61395 C 216.75443,64.5754 215.14226,63.86357 213.44896,63.80949 z" style="overflow: visible; marker: none; fill: rgb(0, 0, 0); fill-opacity: 1; fill-rule: evenodd; stroke: rgb(0, 0, 0); stroke-width: 0.203998; stroke-linecap: butt; stroke-linejoin: miter; stroke-miterlimit: 4; stroke-dasharray: none; stroke-dashoffset: 0pt; stroke-opacity: 1; visibility: visible; display: inline;"/>
      <path id="path3522" d="M 229.92534,84.67519 C 229.47775,85.12648 228.7526,85.30865 228.51821,85.94877 C 228.53213,86.72767 228.83968,87.47816 228.81129,88.25924 C 228.96729,90.45684 228.68419,92.67543 228.95238,94.86715 C 229.03832,95.32513 229.26394,95.94927 229.81269,95.97245 C 230.38801,95.94359 230.63588,95.32376 230.71435,94.83672 C 231.16674,93.03797 230.78904,91.16084 230.89888,89.33289 C 230.86838,87.73201 230.6598,86.09092 230.03951,84.59118 C 230.00146,84.61918 229.9634,84.64718 229.92534,84.67519 z" style="overflow: visible; marker: none; fill: rgb(0, 0, 0); fill-opacity: 1; fill-rule: evenodd; stroke: rgb(0, 0, 0); stroke-width: 0.203998; stroke-linecap: butt; stroke-linejoin: miter; stroke-miterlimit: 4; stroke-dasharray: none; stroke-dashoffset: 0pt; stroke-opacity: 1; visibility: visible; display: inline;"/>
      <path id="path3524" d="M 235.97526,85.07094 C 235.4667,85.33383 235.06133,85.75356 234.58179,86.0637 C 235.30608,88.57134 235.20679,91.20457 235.49255,93.77011 C 235.66945,94.2475 235.67297,94.88465 236.11808,95.21281 C 236.51476,95.4529 237.10565,95.21624 237.16046,94.74217 C 237.66917,93.42586 237.71806,91.97532 237.5029,90.58592 C 237.32632,88.81015 237.12648,87.0094 236.58105,85.30475 C 236.44523,85.12112 236.20045,85.01777 235.97526,85.07094 z" style="overflow: visible; marker: none; fill: rgb(0, 0, 0); fill-opacity: 1; fill-rule: evenodd; stroke: rgb(0, 0, 0); stroke-width: 0.203998; stroke-linecap: butt; stroke-linejoin: miter; stroke-miterlimit: 4; stroke-dasharray: none; stroke-dashoffset: 0pt; stroke-opacity: 1; visibility: visible; display: inline;"/>
    </g>
    <path style="overflow: visible; marker: none; fill: rgb(0, 0, 0); fill-opacity: 1; fill-rule: evenodd; stroke: rgb(0, 0, 0); stroke-width: 1; stroke-linecap: round; stroke-linejoin: round; stroke-miterlimit: 4; stroke-dasharray: none; stroke-dashoffset: 0pt; stroke-opacity: 1; visibility: visible; display: inline;" d="M 398.59065,58.206416 C 396.34857,58.554446 394.49315,59.999676 392.95071,61.571516 C 391.82714,62.713976 390.90046,64.228366 390.96253,65.885386 C 391.06511,66.262396 391.62676,66.345766 391.83852,66.032886 C 392.22248,65.779496 392.79632,65.533826 392.77315,64.984746 C 393.02502,63.577986 394.04096,62.484406 395.01552,61.514836 C 396.51013,60.130206 398.79736,59.458576 400.74745,60.212696 C 402.57563,60.946556 403.74631,62.695536 404.42112,64.467656 C 405.56197,67.381226 405.60154,70.847736 403.97789,73.574636 C 403.26074,74.784066 402.15469,75.735426 400.91099,76.385656 C 400.56877,76.685176 400.71815,77.411226 401.22241,77.408196 C 401.94682,77.337676 402.46564,76.779686 403.08019,76.458266 C 404.94564,75.217936 406.33933,73.286096 406.8062,71.083446 C 407.65283,67.571806 406.82011,63.693746 404.67875,60.773956 C 403.48461,59.224596 401.62326,58.088896 399.62428,58.128566 C 399.27899,58.123006 398.93168,58.150546 398.59065,58.206416 z" id="path2687" inkscape:export-filename="/home/yekcim/Desktop/path3499.png" inkscape:export-xdpi="90" inkscape:export-ydpi="90"/>
    <path style="overflow: visible; marker: none; fill: rgb(0, 0, 0); fill-opacity: 1; fill-rule: evenodd; stroke: rgb(0, 0, 0); stroke-width: 1; stroke-linecap: round; stroke-linejoin: round; stroke-miterlimit: 4; stroke-dasharray: none; stroke-dashoffset: 0pt; stroke-opacity: 1; visibility: visible; display: inline;" d="M 346.09787,25.521726 C 345.68098,25.725796 345.06249,25.912966 344.99127,26.458266 C 345.42259,29.859136 346.24269,33.179646 346.80722,36.561536 C 347.30144,39.317516 347.34976,42.142336 347.48821,44.933636 C 347.52186,47.477386 346.8638,49.993906 345.72899,52.255646 C 344.27243,55.243366 342.32844,57.975416 340.53655,60.769656 C 338.68734,63.606766 336.78029,66.401456 334.71988,69.084996 C 332.34403,72.273876 329.94794,75.594176 328.84644,79.472036 C 328.2785,81.545306 328.087,83.838906 328.87478,85.885906 C 329.59673,87.733166 331.11353,89.193886 332.93231,89.944276 C 335.66445,91.139726 338.72779,91.281296 341.67151,91.079456 C 343.30299,90.954436 344.9103,90.663466 346.49512,90.284806 C 346.59881,89.595836 346.75673,88.918586 346.92073,88.241466 C 344.31974,88.844906 341.68238,89.191956 339.00436,89.007716 C 336.85949,88.866346 334.62725,88.421416 332.87553,87.106266 C 331.46884,86.036906 330.49054,84.317276 330.54888,82.508726 C 330.49843,79.544316 331.76295,76.767236 333.24442,74.278506 C 335.66258,70.273496 338.81212,66.761656 341.27428,62.784616 C 343.65657,59.128996 346.23382,55.527216 347.99891,51.517776 C 348.97137,49.219746 349.41843,46.719596 349.24738,44.224126 C 349.13364,42.125006 348.96375,40.008356 348.70827,37.923776 C 348.42493,35.670906 347.86433,33.482666 347.31792,31.282866 C 346.91555,29.570376 346.51855,27.835876 346.29647,26.089336 C 346.28803,25.916186 346.38325,25.513976 346.09787,25.521726 z" id="path2693" inkscape:export-filename="/home/yekcim/Desktop/path3499.png" inkscape:export-xdpi="90" inkscape:export-ydpi="90"/>
    <path style="overflow: visible; marker: none; fill: rgb(0, 0, 0); fill-opacity: 1; fill-rule: evenodd; stroke: rgb(0, 0, 0); stroke-width: 1; stroke-linecap: round; stroke-linejoin: round; stroke-miterlimit: 4; stroke-dasharray: none; stroke-dashoffset: 0pt; stroke-opacity: 1; visibility: visible; display: inline;" d="M 399.64798,91.407456 C 399.28089,91.654356 398.6506,91.779576 398.63092,92.320436 C 398.67925,92.848976 399.27376,93.043696 399.52336,93.459646 C 400.58622,94.679336 401.80344,95.798776 403.25876,96.528026 C 406.71009,98.496006 410.51484,99.769746 414.36431,100.68335 C 418.65671,101.66594 423.03817,102.15534 427.40972,102.61065 C 426.73046,104.31134 425.13308,105.45671 423.42924,105.98599 C 419.14594,107.53085 414.49674,107.71429 409.97339,107.41784 C 404.28618,106.98075 398.68801,105.603 393.31456,103.7184 C 389.17058,102.21261 385.22848,100.12959 381.75999,97.392586 C 380.68977,96.589746 379.61551,95.772306 378.56069,94.960396 C 378.11138,94.665786 377.546,95.200556 377.67089,95.678266 C 377.77243,96.026296 378.13692,96.211066 378.33281,96.505406 C 379.1997,97.513136 380.14644,98.431896 381.20912,99.232526 C 384.33229,101.67815 387.929,103.43906 391.60807,104.87165 C 396.39355,106.68866 401.38379,107.93459 406.44388,108.65812 C 411.39073,109.3052 416.48212,109.33513 421.32964,108.12796 C 423.56662,107.53006 425.77645,106.64333 427.58575,105.17726 C 428.44727,104.41382 429.03901,103.39095 429.49,102.34471 C 429.91924,101.988 429.68435,101.11961 429.09276,101.11218 C 427.5972,100.81541 426.05696,100.86804 424.55186,100.62325 C 418.72522,99.990036 412.8455,99.013096 407.44899,96.610716 C 405.0069,95.570586 402.62162,94.239586 400.80481,92.271186 C 400.45665,91.947856 400.09386,91.644566 399.70224,91.376236 L 399.65936,91.400906 L 399.64798,91.407456 z" id="path2697" inkscape:export-filename="/home/yekcim/Desktop/path3499.png" inkscape:export-xdpi="90" inkscape:export-ydpi="90"/>
    <path style="overflow: visible; marker: none; fill: rgb(0, 0, 0); fill-opacity: 1; fill-rule: evenodd; stroke: rgb(0, 0, 0); stroke-width: 1; stroke-linecap: round; stroke-linejoin: round; stroke-miterlimit: 4; stroke-dasharray: none; stroke-dashoffset: 0pt; stroke-opacity: 1; visibility: visible; display: inline;" d="M 378.52944,63.295476 C 378.26381,63.300526 378.00027,63.312676 377.73498,63.323856 C 378.22899,63.812286 378.67,64.344116 379.06854,64.913106 C 382.10421,64.951266 385.14889,65.401466 388.06313,66.275356 C 392.24708,67.603826 396.0922,70.218156 398.61828,73.852826 C 400.536,76.552926 401.70838,79.694376 402.44878,82.906026 C 403.48684,87.150806 404.08098,91.549076 405.82529,95.591836 C 406.46599,96.923256 407.38461,98.219306 408.71945,98.912336 C 409.29534,99.102816 409.87667,98.783416 410.30839,98.429846 C 410.6958,98.038636 410.58555,97.286246 410.05301,97.067606 C 408.36385,96.003436 407.5832,94.063756 406.98863,92.243026 C 405.20255,87.063606 404.81906,81.465656 402.56225,76.435386 C 400.13736,70.982696 395.25513,66.688236 389.59532,64.856356 C 386.84587,63.924876 383.97341,63.456506 381.08312,63.323856 C 380.22932,63.275786 379.38292,63.279246 378.52944,63.295476 z M 364.76799,66.388876 C 363.64133,66.893606 362.54374,67.442946 361.4766,68.063336 C 357.38137,70.399836 353.78087,73.574476 350.94983,77.343526 C 348.03217,81.125516 345.76625,85.537566 345.04804,90.313206 C 344.41605,94.344846 344.9339,98.659206 347.0626,102.20441 C 349.14083,105.76832 352.70677,108.49015 356.76649,109.32777 C 358.49202,109.72327 360.25675,109.9282 362.01573,110.09404 C 362.48578,109.96512 362.89131,109.64781 363.2642,109.35614 C 363.47183,108.97043 363.02229,108.56699 362.63994,108.61827 C 359.99493,108.1273 357.1858,108.117 354.7236,106.91546 C 350.72693,105.09512 347.66089,101.2741 346.92073,96.925716 C 346.14967,92.539126 347.00413,87.989896 348.82177,83.984456 C 350.72506,79.836926 353.58801,76.161126 356.9084,73.086556 C 358.97171,71.210366 361.30929,69.640726 363.80328,68.375466 C 364.07759,67.691186 364.38463,67.015846 364.76799,66.388876 z" id="path2699" inkscape:export-filename="/home/yekcim/Desktop/path3499.png" inkscape:export-xdpi="90" inkscape:export-ydpi="90"/>
    <path style="overflow: visible; marker: none; fill: rgb(0, 0, 0); fill-opacity: 1; fill-rule: evenodd; stroke: rgb(0, 0, 0); stroke-width: 1; stroke-linecap: round; stroke-linejoin: round; stroke-miterlimit: 4; stroke-dasharray: none; stroke-dashoffset: 0pt; stroke-opacity: 1; visibility: visible; display: inline;" d="M 373.8003,60.062516 C 371.30654,59.935176 368.96806,61.048596 366.98143,62.442946 C 363.49624,64.947566 361.48673,69.256886 361.47992,73.547136 C 361.43458,78.242206 363.63544,82.995436 367.47701,85.766886 C 369.47526,87.200376 372.05729,87.703696 374.45667,87.263316 C 375.74923,87.047546 377.03973,86.672596 378.15671,85.986696 C 378.43631,85.722426 378.37237,85.117796 377.94271,85.053266 C 376.99693,85.075456 376.14714,85.524716 375.2206,85.656036 C 373.06308,86.097356 370.66798,85.860966 368.82746,84.568956 C 366.53574,83.033496 364.89416,80.667636 363.97457,78.086816 C 362.5289,73.927256 363.1245,69.019746 365.85019,65.537306 C 367.18882,63.800006 369.00301,62.365166 371.15483,61.797506 C 372.91026,61.347776 374.91633,61.589796 376.39423,62.715836 C 378.57255,64.264116 379.83923,66.735696 380.7822,69.174166 C 381.52884,71.148336 382.15691,73.164816 382.64978,75.213856 C 382.75875,75.869346 382.81347,76.540616 382.96849,77.191316 C 383.43403,77.723146 384.52137,78.075746 384.27083,75.463836 C 384.34586,75.071766 384.1256,74.693376 384.10102,74.301026 C 383.74724,72.350236 383.25672,70.424726 382.50821,68.583446 C 381.50706,66.018246 380.17589,63.461146 378.00016,61.701276 C 376.80155,60.758086 375.33775,60.111636 373.8003,60.062516 z" id="path2703" sodipodi:nodetypes="ccccccccccccccccccccc" inkscape:export-filename="/home/yekcim/Desktop/path3499.png" inkscape:export-xdpi="90" inkscape:export-ydpi="90"/>
    <path style="overflow: visible; marker: none; fill: rgb(0, 0, 0); fill-opacity: 1; fill-rule: evenodd; stroke: rgb(0, 0, 0); stroke-width: 1; stroke-linecap: round; stroke-linejoin: round; stroke-miterlimit: 4; stroke-dasharray: none; stroke-dashoffset: 0pt; stroke-opacity: 1; visibility: visible; display: inline;" d="M 388.76034,79.011846 C 388.35395,79.421706 387.69555,79.587166 387.48274,80.168496 C 387.49537,80.875846 387.77459,81.557416 387.74882,82.266746 C 387.89045,84.262536 387.63344,86.277336 387.87695,88.267776 C 387.95496,88.683686 388.15984,89.250526 388.65805,89.271566 C 389.18047,89.245376 389.40548,88.682476 389.47676,88.240156 C 389.88752,86.606606 389.54456,84.901866 389.64429,83.241796 C 389.6166,81.787956 389.42724,80.297576 388.86399,78.935576 C 388.82945,78.961016 388.79489,78.986436 388.76034,79.011846 z" id="path2705" inkscape:export-filename="/home/yekcim/Desktop/path3499.png" inkscape:export-xdpi="90" inkscape:export-ydpi="90"/>
    <path style="overflow: visible; marker: none; fill: rgb(0, 0, 0); fill-opacity: 1; fill-rule: evenodd; stroke: rgb(0, 0, 0); stroke-width: 1; stroke-linecap: round; stroke-linejoin: round; stroke-miterlimit: 4; stroke-dasharray: none; stroke-dashoffset: 0pt; stroke-opacity: 1; visibility: visible; display: inline;" d="M 394.25352,79.371286 C 393.79173,79.610026 393.42367,79.991216 392.98827,80.272856 C 393.6459,82.550216 393.55575,84.941586 393.81522,87.271516 C 393.97583,87.705076 393.97901,88.283686 394.38319,88.581716 C 394.74332,88.799726 395.27987,88.584826 395.32962,88.154286 C 395.79152,86.958876 395.83593,85.641536 395.64055,84.379736 C 395.48023,82.767086 395.29879,81.131716 394.80356,79.583626 C 394.68023,79.416856 394.45796,79.322996 394.25352,79.371286 z" id="path2707" inkscape:export-filename="/home/yekcim/Desktop/path3499.png" inkscape:export-xdpi="90" inkscape:export-ydpi="90"/>
    <path style="overflow: visible; marker: none; fill: rgb(255, 255, 255); fill-opacity: 1; fill-rule: evenodd; stroke: rgb(255, 255, 255); stroke-width: 1; stroke-linecap: round; stroke-linejoin: round; stroke-miterlimit: 4; stroke-dasharray: none; stroke-dashoffset: 0pt; stroke-opacity: 1; visibility: visible; display: inline;" d="M 399.85334,55.933576 C 397.61126,56.281606 395.75584,57.726836 394.2134,59.298676 C 393.08983,60.441136 392.16315,61.955526 392.22522,63.612546 C 392.3278,63.989556 392.88945,64.072926 393.10121,63.760046 C 393.48517,63.506656 394.05901,63.260986 394.03584,62.711906 C 394.28771,61.305146 395.30365,60.211566 396.27821,59.241996 C 397.77282,57.857366 400.06005,57.185736 402.01014,57.939856 C 403.83832,58.673716 405.009,60.422696 405.68381,62.194816 C 406.82466,65.108386 406.86423,68.574896 405.24058,71.301796 C 404.52343,72.511226 403.41738,73.462586 402.17368,74.112816 C 401.83146,74.412336 401.98084,75.138386 402.4851,75.135356 C 403.20951,75.064836 403.72833,74.506846 404.34288,74.185426 C 406.20833,72.945096 407.60202,71.013256 408.06889,68.810606 C 408.91552,65.298966 408.0828,61.420906 405.94144,58.501116 C 404.7473,56.951756 402.88595,55.816056 400.88697,55.855726 C 400.54168,55.850166 400.19437,55.877706 399.85334,55.933576 z" id="path3487" inkscape:export-filename="/home/yekcim/Desktop/path3499.png" inkscape:export-xdpi="90" inkscape:export-ydpi="90"/>
    <path style="overflow: visible; marker: none; fill: rgb(255, 255, 255); fill-opacity: 1; fill-rule: evenodd; stroke: rgb(255, 255, 255); stroke-width: 1; stroke-linecap: round; stroke-linejoin: round; stroke-miterlimit: 4; stroke-dasharray: none; stroke-dashoffset: 0pt; stroke-opacity: 1; visibility: visible; display: inline;" d="M 347.36056,23.248886 C 346.94367,23.452956 346.32518,23.640126 346.25396,24.185426 C 346.68528,27.586296 347.50538,30.906806 348.06991,34.288696 C 348.56413,37.044676 348.61245,39.869496 348.7509,42.660796 C 348.78455,45.204546 348.12649,47.721066 346.99168,49.982806 C 345.53512,52.970526 343.59113,55.702576 341.79924,58.496816 C 339.95003,61.333926 338.04298,64.128616 335.98257,66.812156 C 333.60672,70.001036 331.21063,73.321336 330.10913,77.199196 C 329.54119,79.272466 329.34969,81.566066 330.13747,83.613066 C 330.85942,85.460326 332.37622,86.921046 334.195,87.671436 C 336.92714,88.866886 339.99048,89.008456 342.9342,88.806616 C 344.56568,88.681596 346.17299,88.390626 347.75781,88.011966 C 347.8615,87.322996 348.01942,86.645746 348.18342,85.968626 C 345.58243,86.572066 342.94507,86.919116 340.26705,86.734876 C 338.12218,86.593506 335.88994,86.148576 334.13822,84.833426 C 332.73153,83.764066 331.75323,82.044436 331.81157,80.235886 C 331.76112,77.271476 333.02564,74.494396 334.50711,72.005666 C 336.92527,68.000656 340.07481,64.488816 342.53697,60.511776 C 344.91926,56.856156 347.49651,53.254376 349.2616,49.244936 C 350.23406,46.946906 350.68112,44.446756 350.51007,41.951286 C 350.39633,39.852166 350.22644,37.735516 349.97096,35.650936 C 349.68762,33.398066 349.12702,31.209826 348.58061,29.010026 C 348.17824,27.297536 347.78124,25.563036 347.55916,23.816496 C 347.55072,23.643346 347.64594,23.241136 347.36056,23.248886 z" id="path3489" inkscape:export-filename="/home/yekcim/Desktop/path3499.png" inkscape:export-xdpi="90" inkscape:export-ydpi="90"/>
    <path style="overflow: visible; marker: none; fill: rgb(255, 255, 255); fill-opacity: 1; fill-rule: evenodd; stroke: rgb(255, 255, 255); stroke-width: 1; stroke-linecap: round; stroke-linejoin: round; stroke-miterlimit: 4; stroke-dasharray: none; stroke-dashoffset: 0pt; stroke-opacity: 1; visibility: visible; display: inline;" d="M 400.91067,89.134616 C 400.54358,89.381516 399.91329,89.506736 399.89361,90.047596 C 399.94194,90.576136 400.53645,90.770856 400.78605,91.186806 C 401.84891,92.406496 403.06613,93.525936 404.52145,94.255186 C 407.97278,96.223166 411.77753,97.496906 415.627,98.410506 C 419.9194,99.393096 424.30086,99.882496 428.67241,100.33781 C 427.99315,102.0385 426.39577,103.18387 424.69193,103.71315 C 420.40863,105.25801 415.75943,105.44145 411.23608,105.145 C 405.54887,104.70791 399.9507,103.33016 394.57725,101.44556 C 390.43327,99.939766 386.49117,97.856746 383.02268,95.119746 C 381.95246,94.316906 380.8782,93.499466 379.82338,92.687556 C 379.37407,92.392946 378.80869,92.927716 378.93358,93.405426 C 379.03512,93.753456 379.39961,93.938226 379.5955,94.232566 C 380.46239,95.240296 381.40913,96.159056 382.47181,96.959686 C 385.59498,99.405306 389.19169,101.16622 392.87076,102.59881 C 397.65624,104.41582 402.64648,105.66175 407.70657,106.38528 C 412.65342,107.03236 417.74481,107.06229 422.59233,105.85512 C 424.82931,105.25722 427.03914,104.37049 428.84844,102.90442 C 429.70996,102.14098 430.3017,101.11811 430.75269,100.07187 C 431.18193,99.715156 430.94704,98.846766 430.35545,98.839336 C 428.85989,98.542566 427.31965,98.595196 425.81455,98.350406 C 419.98791,97.717196 414.10819,96.740256 408.71168,94.337876 C 406.26959,93.297746 403.88431,91.966746 402.0675,89.998346 C 401.71934,89.675016 401.35655,89.371726 400.96493,89.103396 L 400.92205,89.128066 L 400.91067,89.134616 z" id="path3491" inkscape:export-filename="/home/yekcim/Desktop/path3499.png" inkscape:export-xdpi="90" inkscape:export-ydpi="90"/>
    <path style="overflow: visible; marker: none; fill: rgb(255, 255, 255); fill-opacity: 1; fill-rule: evenodd; stroke: rgb(255, 255, 255); stroke-width: 1; stroke-linecap: round; stroke-linejoin: round; stroke-miterlimit: 4; stroke-dasharray: none; stroke-dashoffset: 0pt; stroke-opacity: 1; visibility: visible; display: inline;" d="M 379.79213,61.022636 C 379.5265,61.027686 379.26296,61.039836 378.99767,61.051016 C 379.49168,61.539446 379.93269,62.071276 380.33123,62.640266 C 383.3669,62.678426 386.41158,63.128626 389.32582,64.002516 C 393.50977,65.330986 397.35489,67.945316 399.88097,71.579986 C 401.79869,74.280086 402.97107,77.421536 403.71147,80.633186 C 404.74953,84.877966 405.34367,89.276236 407.08798,93.318996 C 407.72868,94.650416 408.6473,95.946466 409.98214,96.639496 C 410.55803,96.829976 411.13936,96.510576 411.57108,96.157006 C 411.95849,95.765796 411.84824,95.013406 411.3157,94.794766 C 409.62654,93.730596 408.84589,91.790916 408.25132,89.970186 C 406.46524,84.790766 406.08175,79.192816 403.82494,74.162546 C 401.40005,68.709856 396.51782,64.415396 390.85801,62.583516 C 388.10856,61.652036 385.2361,61.183666 382.34581,61.051016 C 381.49201,61.002946 380.64561,61.006406 379.79213,61.022636 z M 366.03068,64.116036 C 364.90402,64.620766 363.80643,65.170106 362.73929,65.790496 C 358.64406,68.126996 355.04356,71.301636 352.21252,75.070686 C 349.29486,78.852676 347.02894,83.264726 346.31073,88.040366 C 345.67874,92.072006 346.19659,96.386366 348.32529,99.931566 C 350.40352,103.49548 353.96946,106.21731 358.02918,107.05493 C 359.75471,107.45043 361.51944,107.65536 363.27842,107.8212 C 363.74847,107.69228 364.154,107.37497 364.52689,107.0833 C 364.73452,106.69759 364.28498,106.29415 363.90263,106.34543 C 361.25762,105.85446 358.44849,105.84416 355.98629,104.64262 C 351.98962,102.82228 348.92358,99.001256 348.18342,94.652876 C 347.41236,90.266286 348.26682,85.717056 350.08446,81.711616 C 351.98775,77.564086 354.8507,73.888286 358.17109,70.813716 C 360.2344,68.937526 362.57198,67.367886 365.06597,66.102626 C 365.34028,65.418346 365.64732,64.743006 366.03068,64.116036 z" id="path3493" inkscape:export-filename="/home/yekcim/Desktop/path3499.png" inkscape:export-xdpi="90" inkscape:export-ydpi="90"/>
    <path style="overflow: visible; marker: none; fill: rgb(255, 255, 255); fill-opacity: 1; fill-rule: evenodd; stroke: rgb(255, 255, 255); stroke-width: 1; stroke-linecap: round; stroke-linejoin: round; stroke-miterlimit: 4; stroke-dasharray: none; stroke-dashoffset: 0pt; stroke-opacity: 1; visibility: visible; display: inline;" d="M 375.06299,57.789676 C 372.56923,57.662336 370.23075,58.775756 368.24412,60.170106 C 364.75893,62.674726 362.74942,66.984046 362.74261,71.274296 C 362.69727,75.969366 364.89813,80.722596 368.7397,83.494046 C 370.73795,84.927536 373.31998,85.430856 375.71936,84.990476 C 377.01192,84.774706 378.30242,84.399756 379.4194,83.713856 C 379.699,83.449586 379.63506,82.844956 379.2054,82.780426 C 378.25962,82.802616 377.40983,83.251876 376.48329,83.383196 C 374.32577,83.824516 371.93067,83.588126 370.09015,82.296116 C 367.79843,80.760656 366.15685,78.394796 365.23726,75.813976 C 363.79159,71.654416 364.38719,66.746906 367.11288,63.264466 C 368.45151,61.527166 370.2657,60.092326 372.41752,59.524666 C 374.17295,59.074936 376.17902,59.316956 377.65692,60.442996 C 379.83524,61.991276 381.10192,64.462856 382.04489,66.901326 C 382.79153,68.875496 383.4196,70.891976 383.91247,72.941016 C 384.02144,73.596506 384.07616,74.267776 384.23118,74.918476 C 384.69672,75.450306 385.78406,75.802906 385.53352,73.190996 C 385.60855,72.798926 385.38829,72.420536 385.36371,72.028186 C 385.00993,70.077396 384.51941,68.151886 383.7709,66.310606 C 382.76975,63.745406 381.43858,61.188306 379.26285,59.428436 C 378.06424,58.485246 376.60044,57.838796 375.06299,57.789676 z" id="path3495" sodipodi:nodetypes="ccccccccccccccccccccc" inkscape:export-filename="/home/yekcim/Desktop/path3499.png" inkscape:export-xdpi="90" inkscape:export-ydpi="90"/>
    <path style="overflow: visible; marker: none; fill: rgb(255, 255, 255); fill-opacity: 1; fill-rule: evenodd; stroke: rgb(255, 255, 255); stroke-width: 1; stroke-linecap: round; stroke-linejoin: round; stroke-miterlimit: 4; stroke-dasharray: none; stroke-dashoffset: 0pt; stroke-opacity: 1; visibility: visible; display: inline;" d="M 390.02303,76.739006 C 389.61664,77.148866 388.95824,77.314326 388.74543,77.895656 C 388.75806,78.603006 389.03728,79.284576 389.01151,79.993906 C 389.15314,81.989696 388.89613,84.004496 389.13964,85.994936 C 389.21765,86.410846 389.42253,86.977686 389.92074,86.998726 C 390.44316,86.972536 390.66817,86.409636 390.73945,85.967316 C 391.15021,84.333766 390.80725,82.629026 390.90698,80.968956 C 390.87929,79.515116 390.68993,78.024736 390.12668,76.662736 C 390.09214,76.688176 390.05758,76.713596 390.02303,76.739006 z" id="path3497" inkscape:export-filename="/home/yekcim/Desktop/path3499.png" inkscape:export-xdpi="90" inkscape:export-ydpi="90"/>
    <path style="overflow: visible; marker: none; fill: rgb(255, 255, 255); fill-opacity: 1; fill-rule: evenodd; stroke: rgb(255, 255, 255); stroke-width: 1; stroke-linecap: round; stroke-linejoin: round; stroke-miterlimit: 4; stroke-dasharray: none; stroke-dashoffset: 0pt; stroke-opacity: 1; visibility: visible; display: inline;" d="M 395.51621,77.098446 C 395.05442,77.337186 394.68636,77.718376 394.25096,78.000016 C 394.90859,80.277376 394.81844,82.668746 395.07791,84.998676 C 395.23852,85.432236 395.2417,86.010846 395.64588,86.308876 C 396.00601,86.526886 396.54256,86.311986 396.59231,85.881446 C 397.05421,84.686036 397.09862,83.368696 396.90324,82.106896 C 396.74292,80.494246 396.56148,78.858876 396.06625,77.310786 C 395.94292,77.144016 395.72065,77.050156 395.51621,77.098446 z" id="path3499" inkscape:export-xdpi="90" inkscape:export-ydpi="90"/>
  </g>
</svg>