<?xml version="1.0" encoding="UTF-8" standalone="no"?>
<!-- Created with Inkscape (http://www.inkscape.org/) -->
<svg
   xmlns:dc="http://purl.org/dc/elements/1.1/"
   xmlns:cc="http://creativecommons.org/ns#"
   xmlns:rdf="http://www.w3.org/1999/02/22-rdf-syntax-ns#"
   xmlns:svg="http://www.w3.org/2000/svg"
   xmlns="http://www.w3.org/2000/svg"
   xmlns:sodipodi="http://sodipodi.sourceforge.net/DTD/sodipodi-0.dtd"
   xmlns:inkscape="http://www.inkscape.org/namespaces/inkscape"
   width="103.62212"
   height="87.845261"
   id="svg2547"
   sodipodi:version="0.32"
   inkscape:version="0.46"
   sodipodi:docname="shrew1.svg"
   inkscape:output_extension="org.inkscape.output.svg.inkscape"
   version="1.0">
  <defs
     id="defs2549">
    <inkscape:perspective
       sodipodi:type="inkscape:persp3d"
       inkscape:vp_x="0 : 526.18109 : 1"
       inkscape:vp_y="0 : 1000 : 0"
       inkscape:vp_z="744.09448 : 526.18109 : 1"
       inkscape:persp3d-origin="372.04724 : 350.78739 : 1"
       id="perspective2555" />
  </defs>
  <sodipodi:namedview
     id="base"
     pagecolor="#ffffff"
     bordercolor="#666666"
     borderopacity="1.0"
     inkscape:pageopacity="0.0"
     inkscape:pageshadow="2"
     inkscape:zoom="1.979899"
     inkscape:cx="82.893354"
     inkscape:cy="95.95244"
     inkscape:document-units="px"
     inkscape:current-layer="layer1"
     showgrid="false"
     inkscape:window-width="645"
     inkscape:window-height="726"
     inkscape:window-x="248"
     inkscape:window-y="104" />
  <metadata
     id="metadata2552">
    <rdf:RDF>
      <cc:Work
         rdf:about="">
        <dc:format>image/svg+xml</dc:format>
        <dc:type
           rdf:resource="http://purl.org/dc/dcmitype/StillImage" />
      </cc:Work>
    </rdf:RDF>
  </metadata>
  <g
     inkscape:label="Calque 1"
     inkscape:groupmode="layer"
     id="layer1"
     transform="translate(-3.9452791,-1.5120651)">
    <path
       style="fill:#000000;fill-opacity:1;fill-rule:evenodd;stroke:#000000;stroke-width:1;stroke-linecap:round;stroke-linejoin:round;marker:none;stroke-miterlimit:4;stroke-dasharray:none;stroke-dashoffset:0;stroke-opacity:1;visibility:visible;display:inline;overflow:visible"
       d="M 74.685538,36.969703 C 72.443458,37.317733 70.588038,38.762963 69.045598,40.334803 C 67.922028,41.477263 66.995348,42.991653 67.057418,44.648673 C 67.159998,45.025683 67.721648,45.109053 67.933408,44.796173 C 68.317368,44.542783 68.891208,44.297113 68.868038,43.748033 C 69.119908,42.341273 70.135848,41.247693 71.110408,40.278123 C 72.605018,38.893493 74.892249,38.221863 76.842339,38.975983 C 78.670519,39.709843 79.841199,41.458823 80.516009,43.230943 C 81.656859,46.144513 81.696429,49.611023 80.072779,52.337923 C 79.355629,53.547353 78.249579,54.498713 77.005879,55.148943 C 76.663659,55.448463 76.813039,56.174513 77.317299,56.171483 C 78.041709,56.100963 78.560529,55.542973 79.175079,55.221553 C 81.040529,53.981223 82.434219,52.049383 82.901089,49.846733 C 83.747719,46.335093 82.914999,42.457033 80.773639,39.537243 C 79.579499,37.987883 77.718149,36.852183 75.719169,36.891853 C 75.373879,36.886293 75.026569,36.913833 74.685538,36.969703 z"
       id="path2687"
       inkscape:export-filename="/home/yekcim/Desktop/path3499.png"
       inkscape:export-xdpi="90"
       inkscape:export-ydpi="90" />
    <path
       style="fill:#000000;fill-opacity:1;fill-rule:evenodd;stroke:#000000;stroke-width:1;stroke-linecap:round;stroke-linejoin:round;marker:none;stroke-miterlimit:4;stroke-dasharray:none;stroke-dashoffset:0;stroke-opacity:1;visibility:visible;display:inline;overflow:visible"
       d="M 22.192759,4.2850155 C 21.775869,4.4890855 21.157379,4.6762555 21.086159,5.2215555 C 21.517479,8.6224255 22.337579,11.942936 22.902109,15.324826 C 23.396329,18.080806 23.444649,20.905626 23.583099,23.696926 C 23.616749,26.240676 22.958689,28.757193 21.823879,31.018933 C 20.367319,34.006653 18.423329,36.738703 16.631439,39.532943 C 14.782229,42.370053 12.875179,45.164743 10.814769,47.848283 C 8.4389189,51.037163 6.0428289,54.357463 4.9413289,58.235323 C 4.3733889,60.308593 4.1818889,62.602193 4.9696689,64.649193 C 5.6916189,66.496453 7.2084189,67.957173 9.0271989,68.707563 C 11.759339,69.903013 14.822679,70.044583 17.766399,69.842743 C 19.397879,69.717723 21.005189,69.426753 22.590009,69.048093 C 22.693699,68.359123 22.851619,67.681873 23.015619,67.004753 C 20.414629,67.608193 17.777269,67.955243 15.099249,67.771003 C 12.954379,67.629633 10.722139,67.184703 8.9704189,65.869553 C 7.5637289,64.800193 6.5854289,63.080563 6.6437689,61.272013 C 6.5933189,58.307603 7.8578389,55.530523 9.3393089,53.041793 C 11.757469,49.036783 14.907009,45.524943 17.369169,41.547903 C 19.751459,37.892283 22.328709,34.290503 24.093799,30.281063 C 25.066259,27.983033 25.513319,25.482886 25.342269,22.987416 C 25.228529,20.888296 25.058639,18.771646 24.803159,16.687066 C 24.519819,14.434196 23.959219,12.245956 23.412809,10.046156 C 23.010439,8.3336655 22.613439,6.5991655 22.391359,4.8526255 C 22.382919,4.6794755 22.478139,4.2772655 22.192759,4.2850155 z"
       id="path2693"
       inkscape:export-filename="/home/yekcim/Desktop/path3499.png"
       inkscape:export-xdpi="90"
       inkscape:export-ydpi="90" />
    <path
       style="fill:#000000;fill-opacity:1;fill-rule:evenodd;stroke:#000000;stroke-width:1;stroke-linecap:round;stroke-linejoin:round;marker:none;stroke-miterlimit:4;stroke-dasharray:none;stroke-dashoffset:0;stroke-opacity:1;visibility:visible;display:inline;overflow:visible"
       d="M 75.742869,70.170743 C 75.375779,70.417643 74.745488,70.542863 74.725808,71.083723 C 74.774139,71.612263 75.368649,71.806983 75.618249,72.222933 C 76.681109,73.442623 77.898329,74.562063 79.353649,75.291313 C 82.804979,77.259293 86.609729,78.533033 90.459199,79.446637 C 94.751599,80.429227 99.133059,80.918627 103.50461,81.373937 C 102.82535,83.074627 101.22797,84.219997 99.524129,84.749277 C 95.240829,86.294137 90.591629,86.477577 86.068279,86.181127 C 80.381069,85.744037 74.782899,84.366287 69.409448,82.481687 C 65.265469,80.975897 61.323369,78.892877 57.854879,76.155873 C 56.784659,75.353033 55.710399,74.535593 54.655579,73.723683 C 54.206269,73.429073 53.640889,73.963843 53.765779,74.441553 C 53.867319,74.789583 54.231809,74.974353 54.427699,75.268693 C 55.294589,76.276423 56.241329,77.195183 57.304009,77.995813 C 60.427179,80.441437 64.023889,82.202347 67.702958,83.634937 C 72.488438,85.451947 77.478679,86.697877 82.538769,87.421407 C 87.485619,88.068487 92.577009,88.098417 97.424529,86.891247 C 99.661509,86.293347 101.87134,85.406617 103.68064,83.940547 C 104.54216,83.177107 105.1339,82.154237 105.58489,81.107997 C 106.01413,80.751287 105.77924,79.882897 105.18765,79.875467 C 103.69209,79.578697 102.15185,79.631327 100.64675,79.386537 C 94.820109,78.753323 88.940389,77.776383 83.543879,75.374003 C 81.101789,74.333873 78.716509,73.002873 76.899699,71.034473 C 76.551539,70.711143 76.188749,70.407853 75.797129,70.139523 L 75.754249,70.164193 L 75.742869,70.170743 z"
       id="path2697"
       inkscape:export-filename="/home/yekcim/Desktop/path3499.png"
       inkscape:export-xdpi="90"
       inkscape:export-ydpi="90" />
    <path
       style="fill:#000000;fill-opacity:1;fill-rule:evenodd;stroke:#000000;stroke-width:1;stroke-linecap:round;stroke-linejoin:round;marker:none;stroke-miterlimit:4;stroke-dasharray:none;stroke-dashoffset:0;stroke-opacity:1;visibility:visible;display:inline;overflow:visible"
       d="M 54.624329,42.058763 C 54.358699,42.063813 54.095159,42.075963 53.829869,42.087143 C 54.323879,42.575573 54.764889,43.107403 55.163429,43.676393 C 58.199099,43.714553 61.243779,44.164753 64.158019,45.038643 C 68.341968,46.367113 72.187088,48.981443 74.713168,52.616113 C 76.630889,55.316213 77.803269,58.457663 78.543669,61.669313 C 79.581729,65.914093 80.175869,70.312363 81.920179,74.355123 C 82.560879,75.686543 83.479499,76.982593 84.814339,77.675623 C 85.390229,77.866103 85.971559,77.546703 86.403279,77.193133 C 86.790689,76.801923 86.680439,76.049533 86.147899,75.830893 C 84.458739,74.766723 83.678089,72.827043 83.083519,71.006313 C 81.297439,65.826893 80.913949,60.228943 78.657139,55.198673 C 76.232249,49.745983 71.350018,45.451523 65.690209,43.619643 C 62.940759,42.688163 60.068299,42.219793 57.178009,42.087143 C 56.324209,42.039073 55.477809,42.042533 54.624329,42.058763 z M 40.862879,45.152163 C 39.736219,45.656893 38.638629,46.206233 37.571489,46.826623 C 33.476259,49.163123 29.875759,52.337763 27.044719,56.106813 C 24.127059,59.888803 21.861139,64.300853 21.142929,69.076493 C 20.510939,73.108133 21.028789,77.422493 23.157489,80.967697 C 25.235719,84.531607 28.801659,87.253437 32.861379,88.091057 C 34.586909,88.486557 36.351639,88.691487 38.110619,88.857327 C 38.580669,88.728407 38.986199,88.411097 39.359089,88.119427 C 39.566719,87.733717 39.117179,87.330277 38.734829,87.381557 C 36.089819,86.890587 33.280689,86.880287 30.818489,85.678747 C 26.821819,83.858407 23.755779,80.037387 23.015619,75.689003 C 22.244559,71.302413 23.099019,66.753183 24.916659,62.747743 C 26.819949,58.600213 29.682899,54.924413 33.003289,51.849843 C 35.066599,49.973653 37.404179,48.404013 39.898169,47.138753 C 40.172479,46.454473 40.479519,45.779133 40.862879,45.152163 z"
       id="path2699"
       inkscape:export-filename="/home/yekcim/Desktop/path3499.png"
       inkscape:export-xdpi="90"
       inkscape:export-ydpi="90" />
    <path
       style="fill:#000000;fill-opacity:1;fill-rule:evenodd;stroke:#000000;stroke-width:1;stroke-linecap:round;stroke-linejoin:round;marker:none;stroke-miterlimit:4;stroke-dasharray:none;stroke-dashoffset:0;stroke-opacity:1;visibility:visible;display:inline;overflow:visible"
       d="M 49.895189,38.825803 C 47.401429,38.698463 45.062949,39.811883 43.076319,41.206233 C 39.591129,43.710853 37.581619,48.020173 37.574809,52.310423 C 37.529469,57.005493 39.730329,61.758723 43.571899,64.530173 C 45.570149,65.963663 48.152179,66.466983 50.551559,66.026603 C 51.844119,65.810833 53.134619,65.435883 54.251599,64.749983 C 54.531199,64.485713 54.467259,63.881083 54.037599,63.816553 C 53.091819,63.838743 52.242029,64.288003 51.315489,64.419323 C 49.157969,64.860643 46.762869,64.624253 44.922349,63.332243 C 42.630629,61.796783 40.989049,59.430923 40.069459,56.850103 C 38.623789,52.690543 39.219389,47.783033 41.945079,44.300593 C 43.283709,42.563293 45.097899,41.128453 47.249719,40.560793 C 49.005149,40.111063 51.011219,40.353083 52.489119,41.479123 C 54.667439,43.027403 55.934119,45.498983 56.877089,47.937453 C 57.623729,49.911623 58.251799,51.928103 58.744669,53.977143 C 58.853639,54.632633 58.908359,55.303903 59.063379,55.954603 C 59.528919,56.486433 60.616259,56.839033 60.365719,54.227123 C 60.440749,53.835053 60.220489,53.456663 60.195909,53.064313 C 59.842129,51.113523 59.351609,49.188013 58.603099,47.346733 C 57.601949,44.781533 56.270779,42.224433 54.095049,40.464563 C 52.896439,39.521373 51.432639,38.874923 49.895189,38.825803 z"
       id="path2703"
       sodipodi:nodetypes="ccccccccccccccccccccc"
       inkscape:export-filename="/home/yekcim/Desktop/path3499.png"
       inkscape:export-xdpi="90"
       inkscape:export-ydpi="90" />
    <path
       style="fill:#000000;fill-opacity:1;fill-rule:evenodd;stroke:#000000;stroke-width:1;stroke-linecap:round;stroke-linejoin:round;marker:none;stroke-miterlimit:4;stroke-dasharray:none;stroke-dashoffset:0;stroke-opacity:1;visibility:visible;display:inline;overflow:visible"
       d="M 64.855229,57.775133 C 64.448839,58.184993 63.790439,58.350453 63.577629,58.931783 C 63.590259,59.639133 63.869479,60.320703 63.843709,61.030033 C 63.985339,63.025823 63.728329,65.040623 63.971839,67.031063 C 64.049849,67.446973 64.254729,68.013813 64.752939,68.034853 C 65.275359,68.008663 65.500369,67.445763 65.571649,67.003443 C 65.982408,65.369893 65.639449,63.665153 65.739179,62.005083 C 65.711489,60.551243 65.522129,59.060863 64.958879,57.698863 C 64.924339,57.724303 64.889779,57.749723 64.855229,57.775133 z"
       id="path2705"
       inkscape:export-filename="/home/yekcim/Desktop/path3499.png"
       inkscape:export-xdpi="90"
       inkscape:export-ydpi="90" />
    <path
       style="fill:#000000;fill-opacity:1;fill-rule:evenodd;stroke:#000000;stroke-width:1;stroke-linecap:round;stroke-linejoin:round;marker:none;stroke-miterlimit:4;stroke-dasharray:none;stroke-dashoffset:0;stroke-opacity:1;visibility:visible;display:inline;overflow:visible"
       d="M 70.348408,58.134573 C 69.886618,58.373313 69.518558,58.754503 69.083158,59.036143 C 69.740788,61.313503 69.650638,63.704873 69.910108,66.034803 C 70.070718,66.468363 70.073898,67.046973 70.478078,67.345003 C 70.838208,67.563013 71.374758,67.348113 71.424508,66.917573 C 71.886408,65.722163 71.930818,64.404823 71.735438,63.143023 C 71.575118,61.530373 71.393678,59.895003 70.898448,58.346913 C 70.775118,58.180143 70.552848,58.086283 70.348408,58.134573 z"
       id="path2707"
       inkscape:export-filename="/home/yekcim/Desktop/path3499.png"
       inkscape:export-xdpi="90"
       inkscape:export-ydpi="90" />
    <path
       style="fill:#ffffff;fill-opacity:1;fill-rule:evenodd;stroke:#ffffff;stroke-width:1;stroke-linecap:round;stroke-linejoin:round;marker:none;stroke-miterlimit:4;stroke-dasharray:none;stroke-dashoffset:0;stroke-opacity:1;visibility:visible;display:inline;overflow:visible"
       d="M 75.948229,34.696863 C 73.706148,35.044893 71.850728,36.490123 70.308288,38.061963 C 69.184718,39.204423 68.258038,40.718813 68.320108,42.375833 C 68.422688,42.752843 68.984338,42.836213 69.196098,42.523333 C 69.580058,42.269943 70.153898,42.024273 70.130728,41.475193 C 70.382598,40.068433 71.398538,38.974853 72.373098,38.005283 C 73.867708,36.620653 76.154939,35.949023 78.105029,36.703143 C 79.933209,37.437003 81.103889,39.185983 81.778699,40.958103 C 82.919549,43.871673 82.959119,47.338183 81.335469,50.065083 C 80.618319,51.274513 79.512269,52.225873 78.268569,52.876103 C 77.926349,53.175623 78.075729,53.901673 78.579989,53.898643 C 79.304399,53.828123 79.823219,53.270133 80.437769,52.948713 C 82.303219,51.708383 83.696909,49.776543 84.163779,47.573893 C 85.010409,44.062253 84.177689,40.184193 82.036329,37.264403 C 80.842189,35.715043 78.980839,34.579343 76.981859,34.619013 C 76.636569,34.613453 76.289259,34.640993 75.948229,34.696863 z"
       id="path3487"
       inkscape:export-filename="/home/yekcim/Desktop/path3499.png"
       inkscape:export-xdpi="90"
       inkscape:export-ydpi="90" />
    <path
       style="fill:#ffffff;fill-opacity:1;fill-rule:evenodd;stroke:#ffffff;stroke-width:1;stroke-linecap:round;stroke-linejoin:round;marker:none;stroke-miterlimit:4;stroke-dasharray:none;stroke-dashoffset:0;stroke-opacity:1;visibility:visible;display:inline;overflow:visible"
       d="M 23.455449,2.0121755 C 23.038559,2.2162455 22.420069,2.4034155 22.348849,2.9487155 C 22.780169,6.3495855 23.600269,9.6700955 24.164799,13.051986 C 24.659019,15.807966 24.707339,18.632786 24.845789,21.424086 C 24.879439,23.967836 24.221379,26.484356 23.086569,28.746093 C 21.630009,31.733813 19.686019,34.465863 17.894129,37.260103 C 16.044919,40.097213 14.137869,42.891903 12.077459,45.575443 C 9.7016089,48.764323 7.3055189,52.084623 6.2040189,55.962483 C 5.6360789,58.035753 5.4445789,60.329353 6.2323589,62.376353 C 6.9543089,64.223613 8.4711089,65.684333 10.289889,66.434723 C 13.022029,67.630173 16.085369,67.771743 19.029089,67.569903 C 20.660569,67.444883 22.267879,67.153913 23.852699,66.775253 C 23.956389,66.086283 24.114309,65.409033 24.278309,64.731913 C 21.677319,65.335353 19.039959,65.682403 16.361939,65.498163 C 14.217069,65.356793 11.984829,64.911863 10.233109,63.596713 C 8.8264189,62.527353 7.8481189,60.807723 7.9064589,58.999173 C 7.8560089,56.034763 9.1205289,53.257683 10.601999,50.768953 C 13.020159,46.763943 16.169699,43.252103 18.631859,39.275063 C 21.014149,35.619443 23.591399,32.017663 25.356489,28.008223 C 26.328949,25.710196 26.776009,23.210046 26.604959,20.714576 C 26.491219,18.615456 26.321329,16.498806 26.065849,14.414226 C 25.782509,12.161356 25.221909,9.9731155 24.675499,7.7733155 C 24.273129,6.0608255 23.876129,4.3263255 23.654049,2.5797855 C 23.645609,2.4066355 23.740829,2.0044255 23.455449,2.0121755 z"
       id="path3489"
       inkscape:export-filename="/home/yekcim/Desktop/path3499.png"
       inkscape:export-xdpi="90"
       inkscape:export-ydpi="90" />
    <path
       style="fill:#ffffff;fill-opacity:1;fill-rule:evenodd;stroke:#ffffff;stroke-width:1;stroke-linecap:round;stroke-linejoin:round;marker:none;stroke-miterlimit:4;stroke-dasharray:none;stroke-dashoffset:0;stroke-opacity:1;visibility:visible;display:inline;overflow:visible"
       d="M 77.005559,67.897903 C 76.638469,68.144803 76.008179,68.270023 75.988499,68.810883 C 76.036829,69.339423 76.631339,69.534143 76.880939,69.950093 C 77.943799,71.169783 79.161019,72.289223 80.616339,73.018473 C 84.067669,74.986453 87.872419,76.260193 91.721889,77.173793 C 96.014289,78.156383 100.39575,78.645783 104.7673,79.101097 C 104.08804,80.801787 102.49066,81.947157 100.78682,82.476437 C 96.503519,84.021297 91.854319,84.204737 87.330969,83.908287 C 81.643759,83.471197 76.045589,82.093447 70.672138,80.208847 C 66.528158,78.703053 62.586059,76.620033 59.117569,73.883033 C 58.047349,73.080193 56.973089,72.262753 55.918269,71.450843 C 55.468959,71.156233 54.903579,71.691003 55.028469,72.168713 C 55.130009,72.516743 55.494499,72.701513 55.690389,72.995853 C 56.557279,74.003583 57.504019,74.922343 58.566699,75.722973 C 61.689869,78.168593 65.286579,79.929507 68.965648,81.362097 C 73.751128,83.179107 78.741369,84.425037 83.801459,85.148567 C 88.748309,85.795647 93.839699,85.825577 98.687219,84.618407 C 100.9242,84.020507 103.13403,83.133777 104.94333,81.667707 C 105.80485,80.904267 106.39659,79.881397 106.84758,78.835157 C 107.27682,78.478443 107.04193,77.610053 106.45034,77.602623 C 104.95478,77.305853 103.41454,77.358483 101.90944,77.113693 C 96.082799,76.480483 90.203079,75.503543 84.806569,73.101163 C 82.364479,72.061033 79.979199,70.730033 78.162389,68.761633 C 77.814229,68.438303 77.451439,68.135013 77.059819,67.866683 L 77.016939,67.891353 L 77.005559,67.897903 z"
       id="path3491"
       inkscape:export-filename="/home/yekcim/Desktop/path3499.png"
       inkscape:export-xdpi="90"
       inkscape:export-ydpi="90" />
    <path
       style="fill:#ffffff;fill-opacity:1;fill-rule:evenodd;stroke:#ffffff;stroke-width:1;stroke-linecap:round;stroke-linejoin:round;marker:none;stroke-miterlimit:4;stroke-dasharray:none;stroke-dashoffset:0;stroke-opacity:1;visibility:visible;display:inline;overflow:visible"
       d="M 55.887019,39.785923 C 55.621389,39.790973 55.357849,39.803123 55.092559,39.814303 C 55.586569,40.302733 56.027579,40.834563 56.426119,41.403553 C 59.461789,41.441713 62.506469,41.891913 65.420709,42.765803 C 69.604658,44.094273 73.449778,46.708603 75.975859,50.343273 C 77.893579,53.043373 79.065959,56.184823 79.806359,59.396473 C 80.844419,63.641253 81.438559,68.039523 83.182869,72.082283 C 83.823569,73.413703 84.742189,74.709753 86.077029,75.402783 C 86.652919,75.593263 87.234249,75.273863 87.665969,74.920293 C 88.053379,74.529083 87.943129,73.776693 87.410589,73.558053 C 85.721429,72.493883 84.940779,70.554203 84.346209,68.733473 C 82.560129,63.554053 82.176639,57.956103 79.919829,52.925833 C 77.494939,47.473143 72.612708,43.178683 66.952898,41.346803 C 64.203449,40.415323 61.330989,39.946953 58.440699,39.814303 C 57.586899,39.766233 56.740499,39.769693 55.887019,39.785923 z M 42.125569,42.879323 C 40.998909,43.384053 39.901319,43.933393 38.834179,44.553783 C 34.738949,46.890283 31.138449,50.064923 28.307409,53.833973 C 25.389749,57.615963 23.123829,62.028013 22.405619,66.803653 C 21.773629,70.835293 22.291479,75.149653 24.420179,78.694853 C 26.498409,82.258767 30.064349,84.980597 34.124069,85.818217 C 35.849599,86.213717 37.614329,86.418647 39.373309,86.584487 C 39.843359,86.455567 40.248889,86.138257 40.621779,85.846587 C 40.829409,85.460877 40.379869,85.057437 39.997519,85.108717 C 37.352509,84.617747 34.543379,84.607447 32.081179,83.405907 C 28.084509,81.585567 25.018469,77.764543 24.278309,73.416163 C 23.507249,69.029573 24.361709,64.480343 26.179349,60.474903 C 28.082639,56.327373 30.945589,52.651573 34.265979,49.577003 C 36.329289,47.700813 38.666869,46.131173 41.160859,44.865913 C 41.435169,44.181633 41.742209,43.506293 42.125569,42.879323 z"
       id="path3493"
       inkscape:export-filename="/home/yekcim/Desktop/path3499.png"
       inkscape:export-xdpi="90"
       inkscape:export-ydpi="90" />
    <path
       style="fill:#ffffff;fill-opacity:1;fill-rule:evenodd;stroke:#ffffff;stroke-width:1;stroke-linecap:round;stroke-linejoin:round;marker:none;stroke-miterlimit:4;stroke-dasharray:none;stroke-dashoffset:0;stroke-opacity:1;visibility:visible;display:inline;overflow:visible"
       d="M 51.157879,36.552963 C 48.664119,36.425623 46.325639,37.539043 44.339009,38.933393 C 40.853819,41.438013 38.844309,45.747333 38.837499,50.037583 C 38.792159,54.732653 40.993019,59.485883 44.834589,62.257333 C 46.832839,63.690823 49.414869,64.194143 51.814249,63.753763 C 53.106809,63.537993 54.397309,63.163043 55.514289,62.477143 C 55.793889,62.212873 55.729949,61.608243 55.300289,61.543713 C 54.354509,61.565903 53.504719,62.015163 52.578179,62.146483 C 50.420659,62.587803 48.025559,62.351413 46.185039,61.059403 C 43.893319,59.523943 42.251739,57.158083 41.332149,54.577263 C 39.886479,50.417703 40.482079,45.510193 43.207769,42.027753 C 44.546399,40.290453 46.360589,38.855613 48.512409,38.287953 C 50.267839,37.838223 52.273909,38.080243 53.751809,39.206283 C 55.930129,40.754563 57.196809,43.226143 58.139779,45.664613 C 58.886419,47.638783 59.514489,49.655263 60.007359,51.704303 C 60.116329,52.359793 60.171049,53.031063 60.326069,53.681763 C 60.791609,54.213593 61.878949,54.566193 61.628409,51.954283 C 61.703439,51.562213 61.483179,51.183823 61.458599,50.791473 C 61.104819,48.840683 60.614299,46.915173 59.865789,45.073893 C 58.864639,42.508693 57.533469,39.951593 55.357739,38.191723 C 54.159129,37.248533 52.695329,36.602083 51.157879,36.552963 z"
       id="path3495"
       sodipodi:nodetypes="ccccccccccccccccccccc"
       inkscape:export-filename="/home/yekcim/Desktop/path3499.png"
       inkscape:export-xdpi="90"
       inkscape:export-ydpi="90" />
    <path
       style="fill:#ffffff;fill-opacity:1;fill-rule:evenodd;stroke:#ffffff;stroke-width:1;stroke-linecap:round;stroke-linejoin:round;marker:none;stroke-miterlimit:4;stroke-dasharray:none;stroke-dashoffset:0;stroke-opacity:1;visibility:visible;display:inline;overflow:visible"
       d="M 66.117918,55.502293 C 65.711529,55.912153 65.053129,56.077613 64.840319,56.658943 C 64.852949,57.366293 65.132169,58.047863 65.106399,58.757193 C 65.248029,60.752983 64.991019,62.767783 65.234529,64.758223 C 65.312539,65.174133 65.517419,65.740973 66.015628,65.762013 C 66.538048,65.735823 66.763058,65.172923 66.834338,64.730603 C 67.245098,63.097053 66.902138,61.392313 67.001868,59.732243 C 66.974178,58.278403 66.784818,56.788023 66.221568,55.426023 C 66.187028,55.451463 66.152468,55.476883 66.117918,55.502293 z"
       id="path3497"
       inkscape:export-filename="/home/yekcim/Desktop/path3499.png"
       inkscape:export-xdpi="90"
       inkscape:export-ydpi="90" />
    <path
       style="fill:#ffffff;fill-opacity:1;fill-rule:evenodd;stroke:#ffffff;stroke-width:1;stroke-linecap:round;stroke-linejoin:round;marker:none;stroke-miterlimit:4;stroke-dasharray:none;stroke-dashoffset:0;stroke-opacity:1;visibility:visible;display:inline;overflow:visible"
       d="M 71.611098,55.861733 C 71.149308,56.100473 70.781248,56.481663 70.345848,56.763303 C 71.003478,59.040663 70.913328,61.432033 71.172798,63.761963 C 71.333408,64.195523 71.336588,64.774133 71.740768,65.072163 C 72.100898,65.290173 72.637448,65.075273 72.687198,64.644733 C 73.149098,63.449323 73.193508,62.131983 72.998128,60.870183 C 72.837808,59.257533 72.656368,57.622163 72.161138,56.074073 C 72.037808,55.907303 71.815538,55.813443 71.611098,55.861733 z"
       id="path3499"
       inkscape:export-xdpi="90"
       inkscape:export-ydpi="90" />
  </g>
</svg>
